<mxfile host="Electron" agent="Mozilla/5.0 (X11; Linux x86_64) AppleWebKit/537.36 (KHTML, like Gecko) draw.io/26.0.9 Chrome/128.0.6613.186 Electron/32.2.5 Safari/537.36" version="26.0.9">
  <diagram name="Page-1" id="5N1QG-RuHGxLHV1p5bVp">
    <mxGraphModel dx="1178" dy="812" grid="1" gridSize="10" guides="1" tooltips="1" connect="1" arrows="1" fold="1" page="1" pageScale="1" pageWidth="850" pageHeight="1100" math="0" shadow="0">
      <root>
        <mxCell id="0" />
        <mxCell id="1" parent="0" />
        <mxCell id="s1HK-6aSNNE_e3do8wEK-46" value="" style="rounded=0;whiteSpace=wrap;html=1;strokeWidth=1;fillColor=#A3BE8C;strokeColor=none;fontColor=light-dark(#2e3440, #c1c1c1);fillOpacity=50;labelBackgroundColor=none;" parent="1" vertex="1">
          <mxGeometry x="60" y="1000" width="60" height="20" as="geometry" />
        </mxCell>
        <mxCell id="ytIPeGB8zy7AAXnz2NpN-153" value="" style="rounded=0;whiteSpace=wrap;html=1;strokeWidth=1;fillColor=#A3BE8C;strokeColor=none;fontColor=light-dark(#2e3440, #c1c1c1);fillOpacity=50;labelBackgroundColor=none;" parent="1" vertex="1">
          <mxGeometry x="60" y="760" width="60" height="20" as="geometry" />
        </mxCell>
        <mxCell id="s1HK-6aSNNE_e3do8wEK-44" value="" style="rounded=0;whiteSpace=wrap;html=1;strokeWidth=1;fillColor=#A3BE8C;strokeColor=none;fontColor=light-dark(#2e3440, #c1c1c1);fillOpacity=50;labelBackgroundColor=none;" parent="1" vertex="1">
          <mxGeometry x="60" y="840" width="60" height="20" as="geometry" />
        </mxCell>
        <mxCell id="s1HK-6aSNNE_e3do8wEK-45" value="" style="rounded=0;whiteSpace=wrap;html=1;strokeWidth=1;fillColor=#A3BE8C;strokeColor=none;fontColor=light-dark(#2e3440, #c1c1c1);fillOpacity=50;labelBackgroundColor=none;" parent="1" vertex="1">
          <mxGeometry x="60" y="920" width="60" height="20" as="geometry" />
        </mxCell>
        <mxCell id="ytIPeGB8zy7AAXnz2NpN-29" value="&lt;font color=&quot;#ffffff&quot;&gt;#2E3440&lt;/font&gt;" style="rounded=0;whiteSpace=wrap;html=1;strokeWidth=2;fillColor=#2e3440;strokeColor=none;fontColor=#333333;" parent="1" vertex="1">
          <mxGeometry width="80" height="40" as="geometry" />
        </mxCell>
        <mxCell id="ytIPeGB8zy7AAXnz2NpN-30" value="&lt;font color=&quot;#ffffff&quot;&gt;#3b4252&lt;/font&gt;" style="rounded=0;whiteSpace=wrap;html=1;strokeWidth=2;fillColor=#3b4252;strokeColor=none;fontColor=#333333;" parent="1" vertex="1">
          <mxGeometry x="80" width="80" height="40" as="geometry" />
        </mxCell>
        <mxCell id="ytIPeGB8zy7AAXnz2NpN-31" value="&lt;font color=&quot;#ffffff&quot;&gt;#434c5e&lt;/font&gt;" style="rounded=0;whiteSpace=wrap;html=1;strokeWidth=2;fillColor=#434c5e;strokeColor=none;fontColor=#333333;" parent="1" vertex="1">
          <mxGeometry x="160" width="80" height="40" as="geometry" />
        </mxCell>
        <mxCell id="ytIPeGB8zy7AAXnz2NpN-32" value="&lt;font color=&quot;#ffffff&quot;&gt;#4c566a&lt;/font&gt;" style="rounded=0;whiteSpace=wrap;html=1;strokeWidth=2;fillColor=#4c566a;strokeColor=none;fontColor=#333333;" parent="1" vertex="1">
          <mxGeometry x="240" width="80" height="40" as="geometry" />
        </mxCell>
        <mxCell id="ytIPeGB8zy7AAXnz2NpN-34" value="&lt;font color=&quot;#2e3440&quot;&gt;#d8dee9&lt;/font&gt;" style="rounded=0;whiteSpace=wrap;html=1;strokeWidth=2;fillColor=#d8dee9;strokeColor=none;fontColor=#333333;" parent="1" vertex="1">
          <mxGeometry y="40" width="80" height="40" as="geometry" />
        </mxCell>
        <mxCell id="ytIPeGB8zy7AAXnz2NpN-35" value="&lt;font color=&quot;#2e3440&quot;&gt;#e5e9f0&lt;/font&gt;" style="rounded=0;whiteSpace=wrap;html=1;strokeWidth=2;fillColor=#e5e9f0;strokeColor=none;fontColor=#333333;" parent="1" vertex="1">
          <mxGeometry x="80" y="40" width="80" height="40" as="geometry" />
        </mxCell>
        <mxCell id="ytIPeGB8zy7AAXnz2NpN-36" value="&lt;font color=&quot;#2e3440&quot;&gt;#eceff4&lt;/font&gt;" style="rounded=0;whiteSpace=wrap;html=1;strokeWidth=2;fillColor=#eceff4;strokeColor=none;fontColor=#333333;" parent="1" vertex="1">
          <mxGeometry x="160" y="40" width="80" height="40" as="geometry" />
        </mxCell>
        <mxCell id="ytIPeGB8zy7AAXnz2NpN-37" value="&lt;font color=&quot;#2e3440&quot;&gt;#8fbcbb&lt;/font&gt;" style="rounded=0;whiteSpace=wrap;html=1;strokeWidth=2;fillColor=#8fbcbb;strokeColor=none;fontColor=#333333;" parent="1" vertex="1">
          <mxGeometry y="80" width="80" height="40" as="geometry" />
        </mxCell>
        <mxCell id="ytIPeGB8zy7AAXnz2NpN-38" value="&lt;font color=&quot;#2e3440&quot;&gt;#88c0d0&lt;/font&gt;" style="rounded=0;whiteSpace=wrap;html=1;strokeWidth=2;fillColor=#88c0d0;strokeColor=none;fontColor=#333333;" parent="1" vertex="1">
          <mxGeometry x="80" y="80" width="80" height="40" as="geometry" />
        </mxCell>
        <mxCell id="ytIPeGB8zy7AAXnz2NpN-39" value="&lt;font color=&quot;#2e3440&quot;&gt;#81a1c1&lt;/font&gt;" style="rounded=0;whiteSpace=wrap;html=1;strokeWidth=2;fillColor=#81a1c1;strokeColor=none;fontColor=#333333;" parent="1" vertex="1">
          <mxGeometry x="160" y="80" width="80" height="40" as="geometry" />
        </mxCell>
        <mxCell id="ytIPeGB8zy7AAXnz2NpN-40" value="&lt;font color=&quot;#2e3440&quot;&gt;#5e81ac&lt;/font&gt;" style="rounded=0;whiteSpace=wrap;html=1;strokeWidth=2;fillColor=#5e81ac;strokeColor=none;fontColor=#333333;" parent="1" vertex="1">
          <mxGeometry x="240" y="80" width="80" height="40" as="geometry" />
        </mxCell>
        <mxCell id="ytIPeGB8zy7AAXnz2NpN-41" value="&lt;font color=&quot;#2e3440&quot;&gt;#bf616a&lt;/font&gt;" style="rounded=0;whiteSpace=wrap;html=1;strokeWidth=2;fillColor=#bf616a;strokeColor=none;fontColor=#333333;" parent="1" vertex="1">
          <mxGeometry y="120" width="80" height="40" as="geometry" />
        </mxCell>
        <mxCell id="ytIPeGB8zy7AAXnz2NpN-42" value="&lt;font color=&quot;#2e3440&quot;&gt;#d08770&lt;/font&gt;" style="rounded=0;whiteSpace=wrap;html=1;strokeWidth=2;fillColor=#d08770;strokeColor=none;fontColor=#333333;" parent="1" vertex="1">
          <mxGeometry x="80" y="120" width="80" height="40" as="geometry" />
        </mxCell>
        <mxCell id="ytIPeGB8zy7AAXnz2NpN-43" value="&lt;font color=&quot;#2e3440&quot;&gt;#ebcb8b&lt;/font&gt;" style="rounded=0;whiteSpace=wrap;html=1;strokeWidth=2;fillColor=#ebcb8b;strokeColor=none;fontColor=#333333;" parent="1" vertex="1">
          <mxGeometry x="160" y="120" width="80" height="40" as="geometry" />
        </mxCell>
        <mxCell id="ytIPeGB8zy7AAXnz2NpN-44" value="&lt;font color=&quot;#2e3440&quot;&gt;#a3be8c&lt;/font&gt;" style="rounded=0;whiteSpace=wrap;html=1;strokeWidth=2;fillColor=#a3be8c;strokeColor=none;fontColor=#333333;" parent="1" vertex="1">
          <mxGeometry x="240" y="120" width="80" height="40" as="geometry" />
        </mxCell>
        <mxCell id="ytIPeGB8zy7AAXnz2NpN-45" value="&lt;font color=&quot;#2e3440&quot;&gt;#b48ead&lt;/font&gt;" style="rounded=0;whiteSpace=wrap;html=1;strokeWidth=2;fillColor=#b48ead;strokeColor=none;fontColor=#333333;" parent="1" vertex="1">
          <mxGeometry x="320" y="120" width="80" height="40" as="geometry" />
        </mxCell>
        <mxCell id="MK0ivwUaLT0NwmLya7SZ-1" value="" style="rounded=0;whiteSpace=wrap;html=1;strokeWidth=2;fillColor=#ECEFF4;strokeColor=#4c566a;fontColor=#333333;fillOpacity=50;" parent="1" vertex="1">
          <mxGeometry x="480" y="200" width="120" height="40" as="geometry" />
        </mxCell>
        <mxCell id="MK0ivwUaLT0NwmLya7SZ-3" value="" style="rounded=0;whiteSpace=wrap;html=1;strokeWidth=2;fillColor=#BF616A;strokeColor=#BF616A;perimeterSpacing=0;glass=0;shadow=0;fillStyle=solid;gradientColor=none;fillOpacity=50;" parent="1" vertex="1">
          <mxGeometry x="240" y="200" width="120" height="40" as="geometry" />
        </mxCell>
        <mxCell id="_h1I3Aajhg1Jc9n4SGuM-1" value="R0" style="rounded=0;whiteSpace=wrap;html=1;strokeWidth=1;fillColor=#ECEFF4;strokeColor=#4C566A;fontColor=light-dark(#2e3440, #c1c1c1);fillOpacity=50;fontFamily=JetBrainsMono NFP;" parent="1" vertex="1">
          <mxGeometry x="240" y="360" width="80" height="20" as="geometry" />
        </mxCell>
        <mxCell id="_h1I3Aajhg1Jc9n4SGuM-3" value="R1" style="rounded=0;whiteSpace=wrap;html=1;strokeWidth=1;fillColor=#ECEFF4;strokeColor=#4C566A;fontColor=light-dark(#2e3440, #c1c1c1);fillOpacity=50;fontFamily=JetBrainsMono NFP;" parent="1" vertex="1">
          <mxGeometry x="240" y="380" width="80" height="20" as="geometry" />
        </mxCell>
        <mxCell id="_h1I3Aajhg1Jc9n4SGuM-4" value="R2" style="rounded=0;whiteSpace=wrap;html=1;strokeWidth=1;fillColor=#ECEFF4;strokeColor=#4C566A;fontColor=light-dark(#2e3440, #c1c1c1);fillOpacity=50;fontFamily=JetBrainsMono NFP;" parent="1" vertex="1">
          <mxGeometry x="240" y="400" width="80" height="20" as="geometry" />
        </mxCell>
        <mxCell id="_h1I3Aajhg1Jc9n4SGuM-5" value="R3" style="rounded=0;whiteSpace=wrap;html=1;strokeWidth=1;fillColor=#ECEFF4;strokeColor=#4C566A;fontColor=light-dark(#2e3440, #c1c1c1);fillOpacity=50;fontFamily=JetBrainsMono NFP;" parent="1" vertex="1">
          <mxGeometry x="240" y="420" width="80" height="20" as="geometry" />
        </mxCell>
        <mxCell id="_h1I3Aajhg1Jc9n4SGuM-6" value="R4" style="rounded=0;whiteSpace=wrap;html=1;strokeWidth=1;fillColor=#ECEFF4;strokeColor=#4C566A;fontColor=light-dark(#2e3440, #c1c1c1);fillOpacity=50;fontFamily=JetBrainsMono NFP;" parent="1" vertex="1">
          <mxGeometry x="240" y="440" width="80" height="20" as="geometry" />
        </mxCell>
        <mxCell id="_h1I3Aajhg1Jc9n4SGuM-7" value="R5" style="rounded=0;whiteSpace=wrap;html=1;strokeWidth=1;fillColor=#ECEFF4;strokeColor=#4C566A;fontColor=light-dark(#2e3440, #c1c1c1);fillOpacity=50;fontFamily=JetBrainsMono NFP;" parent="1" vertex="1">
          <mxGeometry x="240" y="460" width="80" height="20" as="geometry" />
        </mxCell>
        <mxCell id="_h1I3Aajhg1Jc9n4SGuM-8" value="R6" style="rounded=0;whiteSpace=wrap;html=1;strokeWidth=1;fillColor=#ECEFF4;strokeColor=#4C566A;fontColor=light-dark(#2e3440, #c1c1c1);fillOpacity=50;fontFamily=JetBrainsMono NFP;" parent="1" vertex="1">
          <mxGeometry x="240" y="480" width="80" height="20" as="geometry" />
        </mxCell>
        <mxCell id="_h1I3Aajhg1Jc9n4SGuM-9" value="R7" style="rounded=0;whiteSpace=wrap;html=1;strokeWidth=1;fillColor=#ECEFF4;strokeColor=#4C566A;fontColor=light-dark(#2e3440, #c1c1c1);fillOpacity=50;fontFamily=JetBrainsMono NFP;" parent="1" vertex="1">
          <mxGeometry x="240" y="500" width="80" height="20" as="geometry" />
        </mxCell>
        <mxCell id="_h1I3Aajhg1Jc9n4SGuM-10" value="R8" style="rounded=0;whiteSpace=wrap;html=1;strokeWidth=1;fillColor=#ECEFF4;strokeColor=#4C566A;fontColor=light-dark(#2e3440, #c1c1c1);fillOpacity=50;fontFamily=JetBrainsMono NFP;" parent="1" vertex="1">
          <mxGeometry x="240" y="520" width="80" height="20" as="geometry" />
        </mxCell>
        <mxCell id="_h1I3Aajhg1Jc9n4SGuM-11" value="R9" style="rounded=0;whiteSpace=wrap;html=1;strokeWidth=1;fillColor=#ECEFF4;strokeColor=#4C566A;fontColor=light-dark(#2e3440, #c1c1c1);fillOpacity=50;fontFamily=JetBrainsMono NFP;" parent="1" vertex="1">
          <mxGeometry x="240" y="540" width="80" height="20" as="geometry" />
        </mxCell>
        <mxCell id="_h1I3Aajhg1Jc9n4SGuM-12" value="R10" style="rounded=0;whiteSpace=wrap;html=1;strokeWidth=1;fillColor=#ECEFF4;strokeColor=#4C566A;fontColor=light-dark(#2e3440, #c1c1c1);fillOpacity=50;fontFamily=JetBrainsMono NFP;" parent="1" vertex="1">
          <mxGeometry x="240" y="560" width="80" height="20" as="geometry" />
        </mxCell>
        <mxCell id="_h1I3Aajhg1Jc9n4SGuM-13" value="R11" style="rounded=0;whiteSpace=wrap;html=1;strokeWidth=1;fillColor=#ECEFF4;strokeColor=#4C566A;fontColor=light-dark(#2e3440, #c1c1c1);fillOpacity=50;fontFamily=JetBrainsMono NFP;" parent="1" vertex="1">
          <mxGeometry x="240" y="580" width="80" height="20" as="geometry" />
        </mxCell>
        <mxCell id="_h1I3Aajhg1Jc9n4SGuM-14" value="R12" style="rounded=0;whiteSpace=wrap;html=1;strokeWidth=1;fillColor=#ECEFF4;strokeColor=#4C566A;fontColor=light-dark(#2e3440, #c1c1c1);fillOpacity=50;fontFamily=JetBrainsMono NFP;" parent="1" vertex="1">
          <mxGeometry x="240" y="600" width="80" height="20" as="geometry" />
        </mxCell>
        <mxCell id="_h1I3Aajhg1Jc9n4SGuM-15" value="R13 (分组)" style="rounded=0;whiteSpace=wrap;html=1;strokeWidth=1;fillColor=#ECEFF4;strokeColor=#4C566A;fontColor=light-dark(#2e3440, #c1c1c1);fillOpacity=50;fontFamily=JetBrainsMono NFP;" parent="1" vertex="1">
          <mxGeometry x="240" y="620" width="80" height="20" as="geometry" />
        </mxCell>
        <mxCell id="_h1I3Aajhg1Jc9n4SGuM-16" value="R14" style="rounded=0;whiteSpace=wrap;html=1;strokeWidth=1;fillColor=#ECEFF4;strokeColor=#4C566A;fontColor=light-dark(#2e3440, #c1c1c1);fillOpacity=50;fontFamily=JetBrainsMono NFP;" parent="1" vertex="1">
          <mxGeometry x="240" y="640" width="80" height="20" as="geometry" />
        </mxCell>
        <mxCell id="_h1I3Aajhg1Jc9n4SGuM-17" value="R15" style="rounded=0;whiteSpace=wrap;html=1;strokeWidth=1;fillColor=#ECEFF4;strokeColor=#4C566A;fontColor=light-dark(#2e3440, #c1c1c1);fillOpacity=50;fontFamily=JetBrainsMono NFP;" parent="1" vertex="1">
          <mxGeometry x="240" y="660" width="80" height="20" as="geometry" />
        </mxCell>
        <mxCell id="_h1I3Aajhg1Jc9n4SGuM-23" value="通用寄存器（低寄存器）" style="text;html=1;align=center;verticalAlign=middle;resizable=0;points=[];autosize=1;strokeColor=none;fillColor=none;fontColor=light-dark(#2e3440, #c1c1c1);fontFamily=JetBrainsMono NFP;" parent="1" vertex="1">
          <mxGeometry x="330" y="425" width="160" height="30" as="geometry" />
        </mxCell>
        <mxCell id="_h1I3Aajhg1Jc9n4SGuM-26" value="" style="shape=curlyBracket;whiteSpace=wrap;html=1;rounded=1;flipH=1;labelPosition=right;verticalLabelPosition=middle;align=left;verticalAlign=middle;strokeColor=#4C566A;fontColor=light-dark(#2e3440, #c1c1c1);fontFamily=JetBrainsMono NFP;" parent="1" vertex="1">
          <mxGeometry x="320" y="360" width="20" height="160" as="geometry" />
        </mxCell>
        <mxCell id="_h1I3Aajhg1Jc9n4SGuM-27" value="" style="shape=curlyBracket;whiteSpace=wrap;html=1;rounded=1;flipH=1;labelPosition=right;verticalLabelPosition=middle;align=left;verticalAlign=middle;strokeColor=#4C566A;fontColor=light-dark(#2e3440, #c1c1c1);fontFamily=JetBrainsMono NFP;" parent="1" vertex="1">
          <mxGeometry x="320" y="520" width="20" height="100" as="geometry" />
        </mxCell>
        <mxCell id="_h1I3Aajhg1Jc9n4SGuM-28" value="通用寄存器（高寄存器）" style="text;html=1;align=center;verticalAlign=middle;resizable=0;points=[];autosize=1;strokeColor=none;fillColor=none;fontColor=light-dark(#2e3440, #c1c1c1);fontFamily=JetBrainsMono NFP;" parent="1" vertex="1">
          <mxGeometry x="330" y="555" width="160" height="30" as="geometry" />
        </mxCell>
        <mxCell id="_h1I3Aajhg1Jc9n4SGuM-30" value="栈指针 (SP)，包含主栈指针 (MSP) 和进程栈指针 (PSP)" style="text;html=1;align=center;verticalAlign=middle;resizable=0;points=[];autosize=1;strokeColor=none;fillColor=none;fontColor=light-dark(#2e3440, #c1c1c1);fontFamily=JetBrainsMono NFP;" parent="1" vertex="1">
          <mxGeometry x="315" y="615" width="350" height="30" as="geometry" />
        </mxCell>
        <mxCell id="_h1I3Aajhg1Jc9n4SGuM-31" value="链接寄存器 (LR)" style="text;html=1;align=center;verticalAlign=middle;resizable=0;points=[];autosize=1;strokeColor=none;fillColor=none;fontColor=light-dark(#2e3440, #c1c1c1);fontFamily=JetBrainsMono NFP;" parent="1" vertex="1">
          <mxGeometry x="315" y="635" width="120" height="30" as="geometry" />
        </mxCell>
        <mxCell id="_h1I3Aajhg1Jc9n4SGuM-32" value="程序计数器 (PC)" style="text;html=1;align=center;verticalAlign=middle;resizable=0;points=[];autosize=1;strokeColor=none;fillColor=none;fontColor=light-dark(#2e3440, #c1c1c1);fontFamily=JetBrainsMono NFP;" parent="1" vertex="1">
          <mxGeometry x="315" y="655" width="120" height="30" as="geometry" />
        </mxCell>
        <mxCell id="ZyxYiBLsQTkUg_QAeN48-5" value="" style="rounded=0;whiteSpace=wrap;html=1;strokeWidth=2;fillColor=#5E81AC;strokeColor=#5E81AC;fontColor=#333333;fillOpacity=50;" parent="1" vertex="1">
          <mxGeometry x="370" y="210" width="120" height="40" as="geometry" />
        </mxCell>
        <mxCell id="s1HK-6aSNNE_e3do8wEK-1" value="0x1" style="rounded=0;whiteSpace=wrap;html=1;strokeWidth=1;fillColor=#ECEFF4;strokeColor=#4C566A;fontColor=light-dark(#2e3440, #c1c1c1);fillOpacity=50;labelBackgroundColor=none;" parent="1" vertex="1">
          <mxGeometry x="120" y="760" width="80" height="20" as="geometry" />
        </mxCell>
        <mxCell id="s1HK-6aSNNE_e3do8wEK-2" value="" style="rounded=0;whiteSpace=wrap;html=1;strokeWidth=1;fillColor=#ECEFF4;strokeColor=#4C566A;fontColor=light-dark(#2e3440, #c1c1c1);fillOpacity=50;labelBackgroundColor=none;" parent="1" vertex="1">
          <mxGeometry x="120" y="780" width="80" height="20" as="geometry" />
        </mxCell>
        <mxCell id="s1HK-6aSNNE_e3do8wEK-3" value="" style="rounded=0;whiteSpace=wrap;html=1;strokeWidth=1;fillColor=#ECEFF4;strokeColor=#4C566A;fontColor=light-dark(#2e3440, #c1c1c1);fillOpacity=50;labelBackgroundColor=none;" parent="1" vertex="1">
          <mxGeometry x="120" y="800" width="80" height="20" as="geometry" />
        </mxCell>
        <mxCell id="s1HK-6aSNNE_e3do8wEK-4" value="" style="rounded=0;whiteSpace=wrap;html=1;strokeWidth=1;fillColor=#ECEFF4;strokeColor=#4C566A;fontColor=light-dark(#2e3440, #c1c1c1);fillOpacity=50;labelBackgroundColor=none;" parent="1" vertex="1">
          <mxGeometry x="120" y="820" width="80" height="20" as="geometry" />
        </mxCell>
        <mxCell id="s1HK-6aSNNE_e3do8wEK-5" value="0x78" style="rounded=0;whiteSpace=wrap;html=1;strokeWidth=1;fillColor=#ECEFF4;strokeColor=#4C566A;fontColor=light-dark(#2e3440, #c1c1c1);fillOpacity=50;labelBackgroundColor=none;" parent="1" vertex="1">
          <mxGeometry x="120" y="840" width="80" height="20" as="geometry" />
        </mxCell>
        <mxCell id="s1HK-6aSNNE_e3do8wEK-6" value="0x56" style="rounded=0;whiteSpace=wrap;html=1;strokeWidth=1;fillColor=#ECEFF4;strokeColor=#4C566A;fontColor=light-dark(#2e3440, #c1c1c1);fillOpacity=50;labelBackgroundColor=none;" parent="1" vertex="1">
          <mxGeometry x="120" y="860" width="80" height="20" as="geometry" />
        </mxCell>
        <mxCell id="s1HK-6aSNNE_e3do8wEK-7" value="0x34" style="rounded=0;whiteSpace=wrap;html=1;strokeWidth=1;fillColor=#ECEFF4;strokeColor=#4C566A;fontColor=light-dark(#2e3440, #c1c1c1);fillOpacity=50;labelBackgroundColor=none;" parent="1" vertex="1">
          <mxGeometry x="120" y="880" width="80" height="20" as="geometry" />
        </mxCell>
        <mxCell id="s1HK-6aSNNE_e3do8wEK-14" value="0x0000" style="text;html=1;align=center;verticalAlign=middle;resizable=0;points=[];autosize=1;strokeColor=none;fillColor=none;fontColor=light-dark(#2e3440, #c1c1c1);labelBackgroundColor=none;" parent="1" vertex="1">
          <mxGeometry x="60" y="755" width="60" height="30" as="geometry" />
        </mxCell>
        <mxCell id="s1HK-6aSNNE_e3do8wEK-15" value="0x0001" style="text;html=1;align=center;verticalAlign=middle;resizable=0;points=[];autosize=1;strokeColor=none;fillColor=none;fontColor=light-dark(#2e3440, #c1c1c1);labelBackgroundColor=none;" parent="1" vertex="1">
          <mxGeometry x="60" y="775" width="60" height="30" as="geometry" />
        </mxCell>
        <mxCell id="s1HK-6aSNNE_e3do8wEK-16" value="0x0002" style="text;html=1;align=center;verticalAlign=middle;resizable=0;points=[];autosize=1;strokeColor=none;fillColor=none;fontColor=light-dark(#2e3440, #c1c1c1);labelBackgroundColor=none;" parent="1" vertex="1">
          <mxGeometry x="60" y="795" width="60" height="30" as="geometry" />
        </mxCell>
        <mxCell id="s1HK-6aSNNE_e3do8wEK-17" value="0x0003" style="text;html=1;align=center;verticalAlign=middle;resizable=0;points=[];autosize=1;strokeColor=none;fillColor=none;fontColor=light-dark(#2e3440, #c1c1c1);labelBackgroundColor=none;" parent="1" vertex="1">
          <mxGeometry x="60" y="815" width="60" height="30" as="geometry" />
        </mxCell>
        <mxCell id="s1HK-6aSNNE_e3do8wEK-18" value="0x0004" style="text;html=1;align=center;verticalAlign=middle;resizable=0;points=[];autosize=1;strokeColor=none;fillColor=none;fontColor=light-dark(#2e3440, #c1c1c1);labelBackgroundColor=none;" parent="1" vertex="1">
          <mxGeometry x="60" y="835" width="60" height="30" as="geometry" />
        </mxCell>
        <mxCell id="s1HK-6aSNNE_e3do8wEK-19" value="0x0005" style="text;html=1;align=center;verticalAlign=middle;resizable=0;points=[];autosize=1;strokeColor=none;fillColor=none;fontColor=light-dark(#2e3440, #c1c1c1);labelBackgroundColor=none;" parent="1" vertex="1">
          <mxGeometry x="60" y="855" width="60" height="30" as="geometry" />
        </mxCell>
        <mxCell id="s1HK-6aSNNE_e3do8wEK-20" value="0x0006" style="text;html=1;align=center;verticalAlign=middle;resizable=0;points=[];autosize=1;strokeColor=none;fillColor=none;fontColor=light-dark(#2e3440, #c1c1c1);labelBackgroundColor=none;" parent="1" vertex="1">
          <mxGeometry x="60" y="875" width="60" height="30" as="geometry" />
        </mxCell>
        <mxCell id="s1HK-6aSNNE_e3do8wEK-21" value="&lt;div&gt;&lt;font face=&quot;JetBrainsMono NFP&quot;&gt;&amp;nbsp;&amp;nbsp;&lt;span style=&quot;background-color: transparent;&quot; class=&quot;token directive property&quot;&gt;.section&lt;/span&gt;&lt;span style=&quot;background-color: transparent;&quot;&gt; .rodata&lt;/span&gt;&lt;br&gt;&lt;/font&gt;&lt;/div&gt;&lt;div&gt;&lt;span class=&quot;token comment&quot;&gt;&lt;font face=&quot;JetBrainsMono NFP&quot;&gt;&lt;pre tabindex=&quot;0&quot; class=&quot;chroma&quot; style=&quot;&quot;&gt;&lt;code class=&quot;language-asm&quot; data-lang=&quot;asm&quot;&gt;&lt;span class=&quot;line&quot;&gt;&lt;span class=&quot;cl&quot;&gt;&lt;span class=&quot;nl&quot;&gt;  my_byte:&lt;/span&gt;&lt;br&gt;&lt;/span&gt;&lt;/span&gt;&lt;span class=&quot;line&quot;&gt;&lt;span class=&quot;cl&quot;&gt;      &lt;span class=&quot;na&quot;&gt;.byte&lt;/span&gt; 0x&lt;span class=&quot;mi&quot;&gt;1&lt;/span&gt;&lt;/span&gt;&lt;/span&gt;&lt;/code&gt;&lt;/pre&gt;&lt;pre tabindex=&quot;0&quot; class=&quot;chroma&quot; style=&quot;&quot;&gt;&lt;code class=&quot;language-asm&quot; data-lang=&quot;asm&quot;&gt;&lt;span class=&quot;line&quot;&gt;&lt;span class=&quot;cl&quot;&gt;  .align 2&lt;/span&gt;&lt;/span&gt;&lt;span class=&quot;line&quot;&gt;&lt;span class=&quot;cl&quot;&gt;&lt;span class=&quot;nl&quot;&gt;&lt;br&gt;&lt;/span&gt;&lt;/span&gt;&lt;/span&gt;&lt;/code&gt;&lt;/pre&gt;&lt;pre tabindex=&quot;0&quot; class=&quot;chroma&quot; style=&quot;&quot;&gt;&lt;code class=&quot;language-asm&quot; data-lang=&quot;asm&quot; style=&quot;&quot;&gt;&lt;span class=&quot;line&quot; style=&quot;&quot;&gt;&lt;span class=&quot;cl&quot;&gt;&lt;span class=&quot;nl&quot;&gt;  my_word:&lt;/span&gt;&lt;br&gt;&lt;/span&gt;&lt;/span&gt;&lt;span class=&quot;line&quot; style=&quot;&quot;&gt;&lt;span class=&quot;cl&quot; style=&quot;&quot;&gt;      &lt;span class=&quot;na&quot; style=&quot;&quot;&gt;.word&lt;/span&gt; &lt;span class=&quot;mi&quot; style=&quot;&quot;&gt;0x12345678&lt;/span&gt;&lt;/span&gt;&lt;/span&gt;&lt;/code&gt;&lt;/pre&gt;&lt;/font&gt;&lt;/span&gt;&lt;/div&gt;" style="text;html=1;align=left;verticalAlign=middle;resizable=0;points=[];autosize=1;fontFamily=Helvetica;fontSize=12;fillColor=light-dark(#f5f7f9, #ededed);fontColor=light-dark(#2e3440, #c1c1c1);strokeColor=light-dark(#4c566a, #959595);gradientColor=none;rounded=1;arcSize=3;labelBackgroundColor=none;" parent="1" vertex="1">
          <mxGeometry x="240" y="760" width="180" height="150" as="geometry" />
        </mxCell>
        <mxCell id="s1HK-6aSNNE_e3do8wEK-22" value="0x12" style="rounded=0;whiteSpace=wrap;html=1;strokeWidth=1;fillColor=#ECEFF4;strokeColor=#4C566A;fontColor=light-dark(#2e3440, #c1c1c1);fillOpacity=50;labelBackgroundColor=none;" parent="1" vertex="1">
          <mxGeometry x="120" y="900" width="80" height="20" as="geometry" />
        </mxCell>
        <mxCell id="s1HK-6aSNNE_e3do8wEK-23" value="" style="rounded=0;whiteSpace=wrap;html=1;strokeWidth=1;fillColor=#ECEFF4;strokeColor=#4C566A;fontColor=light-dark(#2e3440, #c1c1c1);fillOpacity=50;labelBackgroundColor=none;" parent="1" vertex="1">
          <mxGeometry x="120" y="920" width="80" height="20" as="geometry" />
        </mxCell>
        <mxCell id="s1HK-6aSNNE_e3do8wEK-24" value="0x0007" style="text;html=1;align=center;verticalAlign=middle;resizable=0;points=[];autosize=1;strokeColor=none;fillColor=none;fontColor=light-dark(#2e3440, #c1c1c1);labelBackgroundColor=none;" parent="1" vertex="1">
          <mxGeometry x="60" y="895" width="60" height="30" as="geometry" />
        </mxCell>
        <mxCell id="s1HK-6aSNNE_e3do8wEK-25" value="0x0009" style="text;html=1;align=center;verticalAlign=middle;resizable=0;points=[];autosize=1;strokeColor=none;fillColor=none;fontColor=light-dark(#2e3440, #c1c1c1);labelBackgroundColor=none;" parent="1" vertex="1">
          <mxGeometry x="60" y="935" width="60" height="30" as="geometry" />
        </mxCell>
        <mxCell id="s1HK-6aSNNE_e3do8wEK-26" value="" style="rounded=0;whiteSpace=wrap;html=1;strokeWidth=1;fillColor=#ECEFF4;strokeColor=#4C566A;fontColor=light-dark(#2e3440, #c1c1c1);fillOpacity=50;labelBackgroundColor=none;" parent="1" vertex="1">
          <mxGeometry x="120" y="940" width="80" height="20" as="geometry" />
        </mxCell>
        <mxCell id="s1HK-6aSNNE_e3do8wEK-27" value="" style="rounded=0;whiteSpace=wrap;html=1;strokeWidth=1;fillColor=#ECEFF4;strokeColor=#4C566A;fontColor=light-dark(#2e3440, #c1c1c1);fillOpacity=50;labelBackgroundColor=none;" parent="1" vertex="1">
          <mxGeometry x="120" y="960" width="80" height="20" as="geometry" />
        </mxCell>
        <mxCell id="s1HK-6aSNNE_e3do8wEK-28" value="" style="rounded=0;whiteSpace=wrap;html=1;strokeWidth=1;fillColor=#ECEFF4;strokeColor=#4C566A;fontColor=light-dark(#2e3440, #c1c1c1);fillOpacity=50;labelBackgroundColor=none;" parent="1" vertex="1">
          <mxGeometry x="120" y="980" width="80" height="20" as="geometry" />
        </mxCell>
        <mxCell id="s1HK-6aSNNE_e3do8wEK-29" value="0x000B" style="text;html=1;align=center;verticalAlign=middle;resizable=0;points=[];autosize=1;strokeColor=none;fillColor=none;fontColor=light-dark(#2e3440, #c1c1c1);labelBackgroundColor=none;" parent="1" vertex="1">
          <mxGeometry x="60" y="975" width="60" height="30" as="geometry" />
        </mxCell>
        <mxCell id="s1HK-6aSNNE_e3do8wEK-30" value="0x000A" style="text;html=1;align=center;verticalAlign=middle;resizable=0;points=[];autosize=1;strokeColor=none;fillColor=none;fontColor=light-dark(#2e3440, #c1c1c1);labelBackgroundColor=none;" parent="1" vertex="1">
          <mxGeometry x="60" y="955" width="60" height="30" as="geometry" />
        </mxCell>
        <mxCell id="s1HK-6aSNNE_e3do8wEK-31" value="0x000C" style="text;html=1;align=center;verticalAlign=middle;resizable=0;points=[];autosize=1;strokeColor=none;fillColor=none;fontColor=light-dark(#2e3440, #c1c1c1);labelBackgroundColor=none;" parent="1" vertex="1">
          <mxGeometry x="60" y="995" width="60" height="30" as="geometry" />
        </mxCell>
        <mxCell id="s1HK-6aSNNE_e3do8wEK-32" value="" style="rounded=0;whiteSpace=wrap;html=1;strokeWidth=1;fillColor=#ECEFF4;strokeColor=#4C566A;fontColor=light-dark(#2e3440, #c1c1c1);fillOpacity=50;labelBackgroundColor=none;" parent="1" vertex="1">
          <mxGeometry x="120" y="1000" width="80" height="20" as="geometry" />
        </mxCell>
        <mxCell id="s1HK-6aSNNE_e3do8wEK-33" value="" style="rounded=0;whiteSpace=wrap;html=1;strokeWidth=1;fillColor=#ECEFF4;strokeColor=#4C566A;fontColor=light-dark(#2e3440, #c1c1c1);fillOpacity=50;labelBackgroundColor=none;" parent="1" vertex="1">
          <mxGeometry x="120" y="1020" width="80" height="20" as="geometry" />
        </mxCell>
        <mxCell id="s1HK-6aSNNE_e3do8wEK-34" value="" style="rounded=0;whiteSpace=wrap;html=1;strokeWidth=1;fillColor=#ECEFF4;strokeColor=#4C566A;fontColor=light-dark(#2e3440, #c1c1c1);fillOpacity=50;labelBackgroundColor=none;" parent="1" vertex="1">
          <mxGeometry x="120" y="1040" width="80" height="20" as="geometry" />
        </mxCell>
        <mxCell id="s1HK-6aSNNE_e3do8wEK-35" value="0x000D" style="text;html=1;align=center;verticalAlign=middle;resizable=0;points=[];autosize=1;strokeColor=none;fillColor=none;fontColor=light-dark(#2e3440, #c1c1c1);labelBackgroundColor=none;" parent="1" vertex="1">
          <mxGeometry x="60" y="1015" width="60" height="30" as="geometry" />
        </mxCell>
        <mxCell id="s1HK-6aSNNE_e3do8wEK-36" value="0x000E" style="text;html=1;align=center;verticalAlign=middle;resizable=0;points=[];autosize=1;strokeColor=none;fillColor=none;fontColor=light-dark(#2e3440, #c1c1c1);labelBackgroundColor=none;" parent="1" vertex="1">
          <mxGeometry x="60" y="1035" width="60" height="30" as="geometry" />
        </mxCell>
        <mxCell id="s1HK-6aSNNE_e3do8wEK-37" value="0x000F" style="text;html=1;align=center;verticalAlign=middle;resizable=0;points=[];autosize=1;strokeColor=none;fillColor=none;fontColor=light-dark(#2e3440, #c1c1c1);labelBackgroundColor=none;" parent="1" vertex="1">
          <mxGeometry x="60" y="1055" width="60" height="30" as="geometry" />
        </mxCell>
        <mxCell id="s1HK-6aSNNE_e3do8wEK-38" value="" style="rounded=0;whiteSpace=wrap;html=1;strokeWidth=1;fillColor=#ECEFF4;strokeColor=#4C566A;fontColor=light-dark(#2e3440, #c1c1c1);fillOpacity=50;labelBackgroundColor=none;" parent="1" vertex="1">
          <mxGeometry x="120" y="1060" width="80" height="20" as="geometry" />
        </mxCell>
        <mxCell id="s1HK-6aSNNE_e3do8wEK-39" value="0x0008" style="text;html=1;align=center;verticalAlign=middle;resizable=0;points=[];autosize=1;strokeColor=none;fillColor=none;fontColor=light-dark(#2e3440, #c1c1c1);labelBackgroundColor=none;" parent="1" vertex="1">
          <mxGeometry x="60" y="915" width="60" height="30" as="geometry" />
        </mxCell>
        <mxCell id="s1HK-6aSNNE_e3do8wEK-43" value="" style="rounded=0;whiteSpace=wrap;html=1;strokeWidth=2;fillColor=#A3BE8C;strokeColor=#A3BE8C;fontColor=#333333;fillOpacity=50;" parent="1" vertex="1">
          <mxGeometry x="130" y="210" width="120" height="40" as="geometry" />
        </mxCell>
        <mxCell id="s1HK-6aSNNE_e3do8wEK-49" value="按 2^2 = 4 字节对齐&lt;div style=&quot;line-height: 160%;&quot;&gt;二进制地址最后两位是 0&lt;/div&gt;&lt;div style=&quot;line-height: 160%;&quot;&gt;十六进制地址最后一位是 0、4、8、C&lt;/div&gt;" style="text;html=1;align=left;verticalAlign=middle;resizable=0;points=[];autosize=1;strokeColor=none;fillColor=none;fontColor=light-dark(#2e3440, #c1c1c1);imageHeight=24;labelBackgroundColor=none;" parent="1" vertex="1">
          <mxGeometry x="240" y="930" width="220" height="70" as="geometry" />
        </mxCell>
        <mxCell id="s1HK-6aSNNE_e3do8wEK-48" value="" style="rounded=0;whiteSpace=wrap;html=1;strokeWidth=1;fillColor=#A3BE8C;strokeColor=none;fontColor=light-dark(#2e3440, #c1c1c1);fillOpacity=50;labelBackgroundColor=none;opacity=60;" parent="1" vertex="1">
          <mxGeometry x="250" y="830" width="70" height="20" as="geometry" />
        </mxCell>
        <mxCell id="F5nCwW8-lX4eNHe_8Bj_-5" style="edgeStyle=orthogonalEdgeStyle;rounded=0;orthogonalLoop=1;jettySize=auto;html=1;entryX=1;entryY=0.5;entryDx=0;entryDy=0;endArrow=blockThin;endFill=1;fontColor=#2E3440;strokeColor=#2E3440;" parent="1" source="F5nCwW8-lX4eNHe_8Bj_-1" target="F5nCwW8-lX4eNHe_8Bj_-4" edge="1">
          <mxGeometry relative="1" as="geometry" />
        </mxCell>
        <mxCell id="F5nCwW8-lX4eNHe_8Bj_-1" value="寄存器" style="rounded=0;whiteSpace=wrap;html=1;strokeWidth=1;fillColor=#ECEFF4;strokeColor=#2E3440;fontColor=#2E3440;fillOpacity=50;labelBackgroundColor=none;" parent="1" vertex="1">
          <mxGeometry x="950" y="130" width="80" height="20" as="geometry" />
        </mxCell>
        <mxCell id="F5nCwW8-lX4eNHe_8Bj_-3" value="" style="endArrow=blockThin;html=1;rounded=0;entryX=1;entryY=0.5;entryDx=0;entryDy=0;endFill=1;fontColor=#2E3440;strokeColor=#2E3440;" parent="1" target="F5nCwW8-lX4eNHe_8Bj_-1" edge="1">
          <mxGeometry width="50" height="50" relative="1" as="geometry">
            <mxPoint x="1060" y="140" as="sourcePoint" />
            <mxPoint x="890" y="110" as="targetPoint" />
          </mxGeometry>
        </mxCell>
        <mxCell id="F5nCwW8-lX4eNHe_8Bj_-4" value="C" style="rounded=0;whiteSpace=wrap;html=1;strokeWidth=1;fillColor=#ECEFF4;strokeColor=#2E3440;fontColor=#2E3440;fillOpacity=50;labelBackgroundColor=none;" parent="1" vertex="1">
          <mxGeometry x="900" y="130" width="20" height="20" as="geometry" />
        </mxCell>
        <mxCell id="F5nCwW8-lX4eNHe_8Bj_-6" value="0" style="text;html=1;align=center;verticalAlign=middle;resizable=0;points=[];autosize=1;strokeColor=none;fillColor=none;fontColor=#2E3440;" parent="1" vertex="1">
          <mxGeometry x="1055" y="125" width="30" height="30" as="geometry" />
        </mxCell>
        <mxCell id="F5nCwW8-lX4eNHe_8Bj_-13" style="edgeStyle=orthogonalEdgeStyle;rounded=0;orthogonalLoop=1;jettySize=auto;html=1;entryX=0;entryY=0.5;entryDx=0;entryDy=0;endArrow=blockThin;endFill=1;fontColor=#2E3440;strokeColor=#2E3440;" parent="1" source="F5nCwW8-lX4eNHe_8Bj_-8" target="F5nCwW8-lX4eNHe_8Bj_-10" edge="1">
          <mxGeometry relative="1" as="geometry">
            <Array as="points">
              <mxPoint x="1050" y="100.29999999999995" />
              <mxPoint x="1050" y="100.29999999999995" />
            </Array>
          </mxGeometry>
        </mxCell>
        <mxCell id="F5nCwW8-lX4eNHe_8Bj_-8" value="寄存器" style="rounded=0;whiteSpace=wrap;html=1;strokeWidth=1;fillColor=#ECEFF4;strokeColor=#2E3440;fontColor=#2E3440;fillOpacity=50;labelBackgroundColor=none;" parent="1" vertex="1">
          <mxGeometry x="950" y="90.29999999999995" width="80" height="20" as="geometry" />
        </mxCell>
        <mxCell id="F5nCwW8-lX4eNHe_8Bj_-10" value="C" style="rounded=0;whiteSpace=wrap;html=1;strokeWidth=1;fillColor=#ECEFF4;strokeColor=#2E3440;fontColor=#2E3440;fillOpacity=50;labelBackgroundColor=none;" parent="1" vertex="1">
          <mxGeometry x="1060" y="90.29999999999995" width="20" height="20" as="geometry" />
        </mxCell>
        <mxCell id="F5nCwW8-lX4eNHe_8Bj_-11" value="0" style="text;html=1;align=center;verticalAlign=middle;resizable=0;points=[];autosize=1;strokeColor=none;fillColor=none;fontColor=#2E3440;" parent="1" vertex="1">
          <mxGeometry x="895" y="85.29999999999995" width="30" height="30" as="geometry" />
        </mxCell>
        <mxCell id="F5nCwW8-lX4eNHe_8Bj_-12" value="" style="endArrow=blockThin;html=1;rounded=0;entryX=0;entryY=0.5;entryDx=0;entryDy=0;endFill=1;fontColor=#2E3440;strokeColor=#2E3440;" parent="1" target="F5nCwW8-lX4eNHe_8Bj_-8" edge="1">
          <mxGeometry width="50" height="50" relative="1" as="geometry">
            <mxPoint x="920" y="100.29999999999995" as="sourcePoint" />
            <mxPoint x="970" y="0.2999999999999545" as="targetPoint" />
          </mxGeometry>
        </mxCell>
        <mxCell id="F5nCwW8-lX4eNHe_8Bj_-19" style="edgeStyle=orthogonalEdgeStyle;rounded=0;orthogonalLoop=1;jettySize=auto;html=1;entryX=0;entryY=0.5;entryDx=0;entryDy=0;endArrow=blockThin;endFill=1;fontColor=#2E3440;strokeColor=#2E3440;" parent="1" source="F5nCwW8-lX4eNHe_8Bj_-20" target="F5nCwW8-lX4eNHe_8Bj_-21" edge="1">
          <mxGeometry relative="1" as="geometry" />
        </mxCell>
        <mxCell id="F5nCwW8-lX4eNHe_8Bj_-20" value="寄存器" style="rounded=0;whiteSpace=wrap;html=1;strokeWidth=1;fillColor=#ECEFF4;strokeColor=#2E3440;fontColor=#2E3440;fillOpacity=50;labelBackgroundColor=none;" parent="1" vertex="1">
          <mxGeometry x="950" y="50" width="80" height="20" as="geometry" />
        </mxCell>
        <mxCell id="F5nCwW8-lX4eNHe_8Bj_-21" value="C" style="rounded=0;whiteSpace=wrap;html=1;strokeWidth=1;fillColor=#ECEFF4;strokeColor=#2E3440;fontColor=#2E3440;fillOpacity=50;labelBackgroundColor=none;" parent="1" vertex="1">
          <mxGeometry x="1060" y="50" width="20" height="20" as="geometry" />
        </mxCell>
        <mxCell id="F5nCwW8-lX4eNHe_8Bj_-24" value="" style="endArrow=none;html=1;rounded=0;exitX=0.126;exitY=1.015;exitDx=0;exitDy=0;exitPerimeter=0;entryX=0.126;entryY=0.025;entryDx=0;entryDy=0;entryPerimeter=0;fontColor=#2E3440;strokeColor=#2E3440;" parent="1" source="F5nCwW8-lX4eNHe_8Bj_-20" target="F5nCwW8-lX4eNHe_8Bj_-20" edge="1">
          <mxGeometry width="50" height="50" relative="1" as="geometry">
            <mxPoint x="965" y="85" as="sourcePoint" />
            <mxPoint x="1015" y="35" as="targetPoint" />
          </mxGeometry>
        </mxCell>
        <mxCell id="F5nCwW8-lX4eNHe_8Bj_-30" value="" style="shape=partialRectangle;whiteSpace=wrap;html=1;bottom=1;right=1;left=1;top=0;fillColor=none;routingCenterX=-0.5;direction=west;fontColor=#2E3440;strokeColor=#2E3440;" parent="1" vertex="1">
          <mxGeometry x="930" y="40" width="25" height="10" as="geometry" />
        </mxCell>
        <mxCell id="F5nCwW8-lX4eNHe_8Bj_-32" value="" style="endArrow=none;html=1;rounded=0;entryX=1;entryY=0;entryDx=0;entryDy=0;fontColor=#2E3440;strokeColor=#2E3440;" parent="1" target="F5nCwW8-lX4eNHe_8Bj_-30" edge="1">
          <mxGeometry width="50" height="50" relative="1" as="geometry">
            <mxPoint x="930" y="60" as="sourcePoint" />
            <mxPoint x="980" y="40" as="targetPoint" />
          </mxGeometry>
        </mxCell>
        <mxCell id="F5nCwW8-lX4eNHe_8Bj_-33" value="" style="endArrow=blockThin;html=1;rounded=0;entryX=0;entryY=0.5;entryDx=0;entryDy=0;endFill=1;fontColor=#2E3440;strokeColor=#2E3440;" parent="1" target="F5nCwW8-lX4eNHe_8Bj_-20" edge="1">
          <mxGeometry width="50" height="50" relative="1" as="geometry">
            <mxPoint x="930" y="60" as="sourcePoint" />
            <mxPoint x="980" y="40" as="targetPoint" />
          </mxGeometry>
        </mxCell>
        <mxCell id="F5nCwW8-lX4eNHe_8Bj_-36" style="edgeStyle=orthogonalEdgeStyle;rounded=0;orthogonalLoop=1;jettySize=auto;html=1;entryX=0;entryY=0.5;entryDx=0;entryDy=0;endArrow=blockThin;endFill=1;fontColor=#2E3440;strokeColor=#2E3440;" parent="1" source="F5nCwW8-lX4eNHe_8Bj_-37" target="F5nCwW8-lX4eNHe_8Bj_-38" edge="1">
          <mxGeometry relative="1" as="geometry" />
        </mxCell>
        <mxCell id="F5nCwW8-lX4eNHe_8Bj_-37" value="寄存器" style="rounded=0;whiteSpace=wrap;html=1;strokeWidth=1;fillColor=#ECEFF4;strokeColor=#2E3440;fontColor=#2E3440;fillOpacity=50;labelBackgroundColor=none;" parent="1" vertex="1">
          <mxGeometry x="1210" y="80" width="80" height="20" as="geometry" />
        </mxCell>
        <mxCell id="F5nCwW8-lX4eNHe_8Bj_-38" value="C" style="rounded=0;whiteSpace=wrap;html=1;strokeWidth=1;fillColor=#ECEFF4;strokeColor=#2E3440;fontColor=#2E3440;fillOpacity=50;labelBackgroundColor=none;" parent="1" vertex="1">
          <mxGeometry x="1320" y="80" width="20" height="20" as="geometry" />
        </mxCell>
        <mxCell id="F5nCwW8-lX4eNHe_8Bj_-40" value="" style="shape=partialRectangle;whiteSpace=wrap;html=1;bottom=1;right=1;left=1;top=0;fillColor=none;routingCenterX=-0.5;direction=west;fontColor=#2E3440;strokeColor=#2E3440;" parent="1" vertex="1">
          <mxGeometry x="1190" y="70" width="110" height="20" as="geometry" />
        </mxCell>
        <mxCell id="F5nCwW8-lX4eNHe_8Bj_-41" value="" style="endArrow=none;html=1;rounded=0;entryX=1;entryY=0;entryDx=0;entryDy=0;fontColor=#2E3440;strokeColor=#2E3440;" parent="1" target="F5nCwW8-lX4eNHe_8Bj_-40" edge="1">
          <mxGeometry width="50" height="50" relative="1" as="geometry">
            <mxPoint x="1190" y="90" as="sourcePoint" />
            <mxPoint x="1240" y="70" as="targetPoint" />
          </mxGeometry>
        </mxCell>
        <mxCell id="F5nCwW8-lX4eNHe_8Bj_-42" value="" style="endArrow=blockThin;html=1;rounded=0;entryX=0;entryY=0.5;entryDx=0;entryDy=0;endFill=1;fontColor=#2E3440;strokeColor=#2E3440;" parent="1" target="F5nCwW8-lX4eNHe_8Bj_-37" edge="1">
          <mxGeometry width="50" height="50" relative="1" as="geometry">
            <mxPoint x="1190" y="90" as="sourcePoint" />
            <mxPoint x="1240" y="70" as="targetPoint" />
          </mxGeometry>
        </mxCell>
        <mxCell id="F5nCwW8-lX4eNHe_8Bj_-43" style="edgeStyle=orthogonalEdgeStyle;rounded=0;orthogonalLoop=1;jettySize=auto;html=1;entryX=0;entryY=0.5;entryDx=0;entryDy=0;endArrow=blockThin;endFill=1;fontColor=#2E3440;strokeColor=#2E3440;" parent="1" source="F5nCwW8-lX4eNHe_8Bj_-44" target="F5nCwW8-lX4eNHe_8Bj_-45" edge="1">
          <mxGeometry relative="1" as="geometry" />
        </mxCell>
        <mxCell id="F5nCwW8-lX4eNHe_8Bj_-44" value="寄存器" style="rounded=0;whiteSpace=wrap;html=1;strokeWidth=1;fillColor=#ECEFF4;strokeColor=#2E3440;fontColor=#2E3440;fillOpacity=50;labelBackgroundColor=none;" parent="1" vertex="1">
          <mxGeometry x="1210" y="129.70000000000005" width="80" height="20" as="geometry" />
        </mxCell>
        <mxCell id="F5nCwW8-lX4eNHe_8Bj_-45" value="C" style="rounded=0;whiteSpace=wrap;html=1;strokeWidth=1;fillColor=#ECEFF4;strokeColor=#2E3440;fontColor=#2E3440;fillOpacity=50;labelBackgroundColor=none;" parent="1" vertex="1">
          <mxGeometry x="1320" y="129.70000000000005" width="20" height="20" as="geometry" />
        </mxCell>
        <mxCell id="F5nCwW8-lX4eNHe_8Bj_-47" value="" style="shape=partialRectangle;whiteSpace=wrap;html=1;bottom=1;right=1;left=1;top=0;fillColor=none;routingCenterX=-0.5;direction=west;fontColor=#2E3440;strokeColor=#2E3440;" parent="1" vertex="1">
          <mxGeometry x="1190" y="119.70000000000005" width="140" height="10.3" as="geometry" />
        </mxCell>
        <mxCell id="F5nCwW8-lX4eNHe_8Bj_-48" value="" style="endArrow=none;html=1;rounded=0;entryX=1;entryY=0;entryDx=0;entryDy=0;fontColor=#2E3440;strokeColor=#2E3440;" parent="1" target="F5nCwW8-lX4eNHe_8Bj_-47" edge="1">
          <mxGeometry width="50" height="50" relative="1" as="geometry">
            <mxPoint x="1190" y="139.70000000000005" as="sourcePoint" />
            <mxPoint x="1240" y="119.70000000000005" as="targetPoint" />
          </mxGeometry>
        </mxCell>
        <mxCell id="F5nCwW8-lX4eNHe_8Bj_-49" value="" style="endArrow=blockThin;html=1;rounded=0;entryX=0;entryY=0.5;entryDx=0;entryDy=0;endFill=1;fontColor=#2E3440;strokeColor=#2E3440;" parent="1" target="F5nCwW8-lX4eNHe_8Bj_-44" edge="1">
          <mxGeometry width="50" height="50" relative="1" as="geometry">
            <mxPoint x="1190" y="139.70000000000005" as="sourcePoint" />
            <mxPoint x="1240" y="119.70000000000005" as="targetPoint" />
          </mxGeometry>
        </mxCell>
        <mxCell id="F5nCwW8-lX4eNHe_8Bj_-50" value="ASR" style="text;html=1;align=center;verticalAlign=middle;resizable=0;points=[];autosize=1;strokeColor=none;fillColor=none;fontColor=#2E3440;" parent="1" vertex="1">
          <mxGeometry x="850" y="40" width="50" height="30" as="geometry" />
        </mxCell>
        <mxCell id="F5nCwW8-lX4eNHe_8Bj_-51" value="LSR" style="text;html=1;align=center;verticalAlign=middle;resizable=0;points=[];autosize=1;strokeColor=none;fillColor=none;fontColor=#2E3440;" parent="1" vertex="1">
          <mxGeometry x="850" y="85.29999999999995" width="50" height="30" as="geometry" />
        </mxCell>
        <mxCell id="F5nCwW8-lX4eNHe_8Bj_-52" value="LSL" style="text;html=1;align=center;verticalAlign=middle;resizable=0;points=[];autosize=1;strokeColor=none;fillColor=none;fontColor=#2E3440;" parent="1" vertex="1">
          <mxGeometry x="855" y="124.69999999999993" width="40" height="30" as="geometry" />
        </mxCell>
        <mxCell id="F5nCwW8-lX4eNHe_8Bj_-53" value="ROR" style="text;html=1;align=center;verticalAlign=middle;resizable=0;points=[];autosize=1;strokeColor=none;fillColor=none;fontColor=#2E3440;" parent="1" vertex="1">
          <mxGeometry x="1140" y="70.29999999999995" width="50" height="30" as="geometry" />
        </mxCell>
        <mxCell id="F5nCwW8-lX4eNHe_8Bj_-54" value="RRX" style="text;html=1;align=center;verticalAlign=middle;resizable=0;points=[];autosize=1;strokeColor=none;fillColor=none;fontColor=#2E3440;" parent="1" vertex="1">
          <mxGeometry x="1140" y="119.70000000000005" width="50" height="30" as="geometry" />
        </mxCell>
        <mxCell id="F5nCwW8-lX4eNHe_8Bj_-55" value="" style="rounded=0;whiteSpace=wrap;html=1;strokeWidth=1;fillColor=#ECEFF4;strokeColor=#2E3440;fontColor=#2E3440;fillOpacity=50;labelBackgroundColor=none;" parent="1" vertex="1">
          <mxGeometry x="960" y="270" width="40" height="20" as="geometry" />
        </mxCell>
        <mxCell id="F5nCwW8-lX4eNHe_8Bj_-57" value="" style="rounded=0;whiteSpace=wrap;html=1;strokeWidth=1;fillColor=#ECEFF4;strokeColor=#2E3440;fontColor=#2E3440;fillOpacity=50;labelBackgroundColor=none;" parent="1" vertex="1">
          <mxGeometry x="1020" y="270" width="40" height="20" as="geometry" />
        </mxCell>
        <mxCell id="F5nCwW8-lX4eNHe_8Bj_-58" value="" style="rounded=0;whiteSpace=wrap;html=1;strokeWidth=1;fillColor=#ECEFF4;strokeColor=#2E3440;fontColor=#2E3440;fillOpacity=50;labelBackgroundColor=none;" parent="1" vertex="1">
          <mxGeometry x="1080" y="270" width="40" height="20" as="geometry" />
        </mxCell>
        <mxCell id="F5nCwW8-lX4eNHe_8Bj_-59" value="" style="rounded=0;whiteSpace=wrap;html=1;strokeWidth=1;fillColor=#ECEFF4;strokeColor=#2E3440;fontColor=#2E3440;fillOpacity=50;labelBackgroundColor=none;" parent="1" vertex="1">
          <mxGeometry x="1140" y="270" width="40" height="20" as="geometry" />
        </mxCell>
        <mxCell id="F5nCwW8-lX4eNHe_8Bj_-60" value="" style="rounded=0;whiteSpace=wrap;html=1;strokeWidth=1;fillColor=#ECEFF4;strokeColor=#2E3440;fontColor=#2E3440;fillOpacity=50;labelBackgroundColor=none;" parent="1" vertex="1">
          <mxGeometry x="960" y="320" width="40" height="20" as="geometry" />
        </mxCell>
        <mxCell id="F5nCwW8-lX4eNHe_8Bj_-61" value="" style="rounded=0;whiteSpace=wrap;html=1;strokeWidth=1;fillColor=#ECEFF4;strokeColor=#2E3440;fontColor=#2E3440;fillOpacity=50;labelBackgroundColor=none;" parent="1" vertex="1">
          <mxGeometry x="1020" y="320" width="40" height="20" as="geometry" />
        </mxCell>
        <mxCell id="F5nCwW8-lX4eNHe_8Bj_-62" value="" style="rounded=0;whiteSpace=wrap;html=1;strokeWidth=1;fillColor=#ECEFF4;strokeColor=#2E3440;fontColor=#2E3440;fillOpacity=50;labelBackgroundColor=none;" parent="1" vertex="1">
          <mxGeometry x="1080" y="320" width="40" height="20" as="geometry" />
        </mxCell>
        <mxCell id="F5nCwW8-lX4eNHe_8Bj_-63" value="" style="rounded=0;whiteSpace=wrap;html=1;strokeWidth=1;fillColor=#ECEFF4;strokeColor=#2E3440;fontColor=#2E3440;fillOpacity=50;labelBackgroundColor=none;" parent="1" vertex="1">
          <mxGeometry x="1140" y="320" width="40" height="20" as="geometry" />
        </mxCell>
        <mxCell id="F5nCwW8-lX4eNHe_8Bj_-65" value="" style="endArrow=blockThin;html=1;rounded=0;exitX=0.5;exitY=1;exitDx=0;exitDy=0;endFill=1;entryX=0.5;entryY=0;entryDx=0;entryDy=0;strokeColor=#2E3440;" parent="1" source="F5nCwW8-lX4eNHe_8Bj_-55" target="F5nCwW8-lX4eNHe_8Bj_-63" edge="1">
          <mxGeometry width="50" height="50" relative="1" as="geometry">
            <mxPoint x="1020" y="360" as="sourcePoint" />
            <mxPoint x="1080" y="310" as="targetPoint" />
          </mxGeometry>
        </mxCell>
        <mxCell id="F5nCwW8-lX4eNHe_8Bj_-66" value="" style="endArrow=blockThin;html=1;rounded=0;exitX=0.5;exitY=1;exitDx=0;exitDy=0;endFill=1;entryX=0.5;entryY=0;entryDx=0;entryDy=0;strokeColor=#2E3440;" parent="1" source="F5nCwW8-lX4eNHe_8Bj_-57" target="F5nCwW8-lX4eNHe_8Bj_-62" edge="1">
          <mxGeometry width="50" height="50" relative="1" as="geometry">
            <mxPoint x="990" y="300" as="sourcePoint" />
            <mxPoint x="1170" y="330" as="targetPoint" />
          </mxGeometry>
        </mxCell>
        <mxCell id="F5nCwW8-lX4eNHe_8Bj_-67" value="" style="endArrow=blockThin;html=1;rounded=0;exitX=0.5;exitY=1;exitDx=0;exitDy=0;endFill=1;entryX=0.5;entryY=0;entryDx=0;entryDy=0;strokeColor=#2E3440;" parent="1" source="F5nCwW8-lX4eNHe_8Bj_-58" target="F5nCwW8-lX4eNHe_8Bj_-61" edge="1">
          <mxGeometry width="50" height="50" relative="1" as="geometry">
            <mxPoint x="1050" y="300" as="sourcePoint" />
            <mxPoint x="1110" y="330" as="targetPoint" />
          </mxGeometry>
        </mxCell>
        <mxCell id="F5nCwW8-lX4eNHe_8Bj_-68" value="" style="endArrow=blockThin;html=1;rounded=0;exitX=0.5;exitY=1;exitDx=0;exitDy=0;endFill=1;entryX=0.5;entryY=0;entryDx=0;entryDy=0;strokeColor=#2E3440;" parent="1" source="F5nCwW8-lX4eNHe_8Bj_-59" target="F5nCwW8-lX4eNHe_8Bj_-60" edge="1">
          <mxGeometry width="50" height="50" relative="1" as="geometry">
            <mxPoint x="1110" y="300" as="sourcePoint" />
            <mxPoint x="1050" y="330" as="targetPoint" />
          </mxGeometry>
        </mxCell>
        <mxCell id="F5nCwW8-lX4eNHe_8Bj_-69" value="REV" style="text;html=1;align=center;verticalAlign=middle;resizable=0;points=[];autosize=1;strokeColor=none;fillColor=none;fontColor=#2E3440;" parent="1" vertex="1">
          <mxGeometry x="1045" y="239.99999999999994" width="50" height="30" as="geometry" />
        </mxCell>
        <mxCell id="F5nCwW8-lX4eNHe_8Bj_-83" value="" style="rounded=0;whiteSpace=wrap;html=1;strokeWidth=1;fillColor=#ECEFF4;strokeColor=#2E3440;fontColor=#2E3440;fillOpacity=50;labelBackgroundColor=none;" parent="1" vertex="1">
          <mxGeometry x="1240" y="270" width="40" height="20" as="geometry" />
        </mxCell>
        <mxCell id="F5nCwW8-lX4eNHe_8Bj_-84" value="" style="rounded=0;whiteSpace=wrap;html=1;strokeWidth=1;fillColor=#ECEFF4;strokeColor=#2E3440;fontColor=#2E3440;fillOpacity=50;labelBackgroundColor=none;" parent="1" vertex="1">
          <mxGeometry x="1300" y="270" width="40" height="20" as="geometry" />
        </mxCell>
        <mxCell id="F5nCwW8-lX4eNHe_8Bj_-85" value="" style="rounded=0;whiteSpace=wrap;html=1;strokeWidth=1;fillColor=#ECEFF4;strokeColor=#2E3440;fontColor=#2E3440;fillOpacity=50;labelBackgroundColor=none;" parent="1" vertex="1">
          <mxGeometry x="1360" y="270" width="40" height="20" as="geometry" />
        </mxCell>
        <mxCell id="F5nCwW8-lX4eNHe_8Bj_-86" value="" style="rounded=0;whiteSpace=wrap;html=1;strokeWidth=1;fillColor=#ECEFF4;strokeColor=#2E3440;fontColor=#2E3440;fillOpacity=50;labelBackgroundColor=none;" parent="1" vertex="1">
          <mxGeometry x="1420" y="270" width="40" height="20" as="geometry" />
        </mxCell>
        <mxCell id="F5nCwW8-lX4eNHe_8Bj_-87" value="" style="rounded=0;whiteSpace=wrap;html=1;strokeWidth=1;fillColor=#ECEFF4;strokeColor=#2E3440;fontColor=#2E3440;fillOpacity=50;labelBackgroundColor=none;" parent="1" vertex="1">
          <mxGeometry x="1240" y="320" width="40" height="20" as="geometry" />
        </mxCell>
        <mxCell id="F5nCwW8-lX4eNHe_8Bj_-88" value="" style="rounded=0;whiteSpace=wrap;html=1;strokeWidth=1;fillColor=#ECEFF4;strokeColor=#2E3440;fontColor=#2E3440;fillOpacity=50;labelBackgroundColor=none;" parent="1" vertex="1">
          <mxGeometry x="1300" y="320" width="40" height="20" as="geometry" />
        </mxCell>
        <mxCell id="F5nCwW8-lX4eNHe_8Bj_-89" value="" style="rounded=0;whiteSpace=wrap;html=1;strokeWidth=1;fillColor=#ECEFF4;strokeColor=#2E3440;fontColor=#2E3440;fillOpacity=50;labelBackgroundColor=none;" parent="1" vertex="1">
          <mxGeometry x="1360" y="320" width="40" height="20" as="geometry" />
        </mxCell>
        <mxCell id="F5nCwW8-lX4eNHe_8Bj_-90" value="" style="rounded=0;whiteSpace=wrap;html=1;strokeWidth=1;fillColor=#ECEFF4;strokeColor=#2E3440;fontColor=#2E3440;fillOpacity=50;labelBackgroundColor=none;" parent="1" vertex="1">
          <mxGeometry x="1420" y="320" width="40" height="20" as="geometry" />
        </mxCell>
        <mxCell id="F5nCwW8-lX4eNHe_8Bj_-96" value="" style="endArrow=blockThin;html=1;rounded=0;exitX=0.5;exitY=1;exitDx=0;exitDy=0;endFill=1;entryX=0.5;entryY=0;entryDx=0;entryDy=0;strokeColor=#2E3440;" parent="1" source="F5nCwW8-lX4eNHe_8Bj_-83" target="F5nCwW8-lX4eNHe_8Bj_-88" edge="1">
          <mxGeometry width="50" height="50" relative="1" as="geometry">
            <mxPoint x="990" y="300" as="sourcePoint" />
            <mxPoint x="1170" y="330" as="targetPoint" />
          </mxGeometry>
        </mxCell>
        <mxCell id="F5nCwW8-lX4eNHe_8Bj_-97" value="" style="endArrow=blockThin;html=1;rounded=0;exitX=0.5;exitY=1;exitDx=0;exitDy=0;endFill=1;entryX=0.5;entryY=0;entryDx=0;entryDy=0;strokeColor=#2E3440;" parent="1" source="F5nCwW8-lX4eNHe_8Bj_-84" target="F5nCwW8-lX4eNHe_8Bj_-87" edge="1">
          <mxGeometry width="50" height="50" relative="1" as="geometry">
            <mxPoint x="1270" y="300" as="sourcePoint" />
            <mxPoint x="1330" y="330" as="targetPoint" />
          </mxGeometry>
        </mxCell>
        <mxCell id="F5nCwW8-lX4eNHe_8Bj_-98" value="" style="endArrow=blockThin;html=1;rounded=0;exitX=0.5;exitY=1;exitDx=0;exitDy=0;endFill=1;entryX=0.5;entryY=0;entryDx=0;entryDy=0;strokeColor=#2E3440;" parent="1" source="F5nCwW8-lX4eNHe_8Bj_-86" target="F5nCwW8-lX4eNHe_8Bj_-89" edge="1">
          <mxGeometry width="50" height="50" relative="1" as="geometry">
            <mxPoint x="1330" y="300" as="sourcePoint" />
            <mxPoint x="1270" y="330" as="targetPoint" />
          </mxGeometry>
        </mxCell>
        <mxCell id="F5nCwW8-lX4eNHe_8Bj_-99" value="" style="endArrow=blockThin;html=1;rounded=0;exitX=0.5;exitY=1;exitDx=0;exitDy=0;endFill=1;entryX=0.5;entryY=0;entryDx=0;entryDy=0;strokeColor=#2E3440;" parent="1" source="F5nCwW8-lX4eNHe_8Bj_-85" target="F5nCwW8-lX4eNHe_8Bj_-90" edge="1">
          <mxGeometry width="50" height="50" relative="1" as="geometry">
            <mxPoint x="1450" y="300" as="sourcePoint" />
            <mxPoint x="1390" y="330" as="targetPoint" />
          </mxGeometry>
        </mxCell>
        <mxCell id="F5nCwW8-lX4eNHe_8Bj_-100" value="" style="rounded=0;whiteSpace=wrap;html=1;strokeWidth=1;fillColor=#ECEFF4;strokeColor=#2E3440;fontColor=#2E3440;fillOpacity=50;labelBackgroundColor=none;" parent="1" vertex="1">
          <mxGeometry x="1520" y="270" width="40" height="20" as="geometry" />
        </mxCell>
        <mxCell id="F5nCwW8-lX4eNHe_8Bj_-101" value="" style="rounded=0;whiteSpace=wrap;html=1;strokeWidth=1;fillColor=#ECEFF4;strokeColor=#2E3440;fontColor=#2E3440;fillOpacity=50;labelBackgroundColor=none;" parent="1" vertex="1">
          <mxGeometry x="1580" y="270" width="40" height="20" as="geometry" />
        </mxCell>
        <mxCell id="F5nCwW8-lX4eNHe_8Bj_-102" value="" style="rounded=0;whiteSpace=wrap;html=1;strokeWidth=1;fillColor=#ECEFF4;strokeColor=#2E3440;fontColor=#2E3440;fillOpacity=50;labelBackgroundColor=none;" parent="1" vertex="1">
          <mxGeometry x="1640" y="270" width="40" height="20" as="geometry" />
        </mxCell>
        <mxCell id="F5nCwW8-lX4eNHe_8Bj_-103" value="" style="rounded=0;whiteSpace=wrap;html=1;strokeWidth=1;fillColor=#ECEFF4;strokeColor=#2E3440;fontColor=#2E3440;fillOpacity=50;labelBackgroundColor=none;" parent="1" vertex="1">
          <mxGeometry x="1700" y="270" width="40" height="20" as="geometry" />
        </mxCell>
        <mxCell id="F5nCwW8-lX4eNHe_8Bj_-104" value="" style="rounded=0;whiteSpace=wrap;html=1;strokeWidth=1;fillColor=#ECEFF4;strokeColor=#2E3440;fontColor=#2E3440;fillOpacity=50;labelBackgroundColor=none;" parent="1" vertex="1">
          <mxGeometry x="1520" y="320" width="120" height="20" as="geometry" />
        </mxCell>
        <mxCell id="F5nCwW8-lX4eNHe_8Bj_-106" value="" style="rounded=0;whiteSpace=wrap;html=1;strokeWidth=1;fillColor=#ECEFF4;strokeColor=#2E3440;fontColor=#2E3440;fillOpacity=50;labelBackgroundColor=none;" parent="1" vertex="1">
          <mxGeometry x="1640" y="320" width="40" height="20" as="geometry" />
        </mxCell>
        <mxCell id="F5nCwW8-lX4eNHe_8Bj_-107" value="" style="rounded=0;whiteSpace=wrap;html=1;strokeWidth=1;fillColor=#ECEFF4;strokeColor=#2E3440;fontColor=#2E3440;fillOpacity=50;labelBackgroundColor=none;" parent="1" vertex="1">
          <mxGeometry x="1700" y="320" width="40" height="20" as="geometry" />
        </mxCell>
        <mxCell id="F5nCwW8-lX4eNHe_8Bj_-110" value="" style="endArrow=blockThin;html=1;rounded=0;exitX=0.5;exitY=1;exitDx=0;exitDy=0;endFill=1;entryX=0.5;entryY=0;entryDx=0;entryDy=0;strokeColor=#2E3440;" parent="1" source="F5nCwW8-lX4eNHe_8Bj_-103" target="F5nCwW8-lX4eNHe_8Bj_-106" edge="1">
          <mxGeometry width="50" height="50" relative="1" as="geometry">
            <mxPoint x="1610" y="300" as="sourcePoint" />
            <mxPoint x="1550" y="330" as="targetPoint" />
          </mxGeometry>
        </mxCell>
        <mxCell id="F5nCwW8-lX4eNHe_8Bj_-111" value="" style="endArrow=blockThin;html=1;rounded=0;exitX=0.5;exitY=1;exitDx=0;exitDy=0;endFill=1;entryX=0.5;entryY=0;entryDx=0;entryDy=0;strokeColor=#2E3440;" parent="1" source="F5nCwW8-lX4eNHe_8Bj_-102" target="F5nCwW8-lX4eNHe_8Bj_-107" edge="1">
          <mxGeometry width="50" height="50" relative="1" as="geometry">
            <mxPoint x="1730" y="300" as="sourcePoint" />
            <mxPoint x="1670" y="330" as="targetPoint" />
          </mxGeometry>
        </mxCell>
        <mxCell id="F5nCwW8-lX4eNHe_8Bj_-112" value="" style="endArrow=blockThin;html=1;rounded=0;exitX=0;exitY=0.75;exitDx=0;exitDy=0;endFill=1;entryX=0;entryY=0.75;entryDx=0;entryDy=0;strokeColor=#2E3440;startSize=6;strokeWidth=1;" parent="1" source="F5nCwW8-lX4eNHe_8Bj_-106" target="F5nCwW8-lX4eNHe_8Bj_-104" edge="1">
          <mxGeometry width="50" height="50" relative="1" as="geometry">
            <mxPoint x="1730" y="300" as="sourcePoint" />
            <mxPoint x="1670" y="330" as="targetPoint" />
          </mxGeometry>
        </mxCell>
        <mxCell id="F5nCwW8-lX4eNHe_8Bj_-113" value="有符号展开" style="text;html=1;align=center;verticalAlign=middle;resizable=0;points=[];autosize=1;strokeColor=none;fillColor=none;fontColor=#2E3440;fontSize=11;" parent="1" vertex="1">
          <mxGeometry x="1540" y="312.99999999999994" width="80" height="30" as="geometry" />
        </mxCell>
        <mxCell id="F5nCwW8-lX4eNHe_8Bj_-114" value="REV16" style="text;html=1;align=center;verticalAlign=middle;resizable=0;points=[];autosize=1;strokeColor=none;fillColor=none;fontColor=#2E3440;" parent="1" vertex="1">
          <mxGeometry x="1320" y="239.99999999999994" width="60" height="30" as="geometry" />
        </mxCell>
        <mxCell id="F5nCwW8-lX4eNHe_8Bj_-115" value="REVSH" style="text;html=1;align=center;verticalAlign=middle;resizable=0;points=[];autosize=1;strokeColor=none;fillColor=none;fontColor=#2E3440;" parent="1" vertex="1">
          <mxGeometry x="1600" y="239.99999999999994" width="60" height="30" as="geometry" />
        </mxCell>
        <mxCell id="geT0XaplCj7s3EuTZbNQ-4" value="&lt;font&gt;&lt;font&gt;IT&lt;/font&gt;&lt;font&gt;___&lt;/font&gt;&amp;nbsp; &amp;nbsp; 条件码&lt;/font&gt;" style="text;html=1;align=left;verticalAlign=middle;resizable=0;points=[];autosize=1;strokeColor=none;fillColor=none;fontColor=#2E3440;fontSize=14;fontFamily=JetBrainsMono NFP;" parent="1" vertex="1">
          <mxGeometry x="1080" y="530" width="140" height="30" as="geometry" />
        </mxCell>
        <mxCell id="geT0XaplCj7s3EuTZbNQ-6" value="&lt;div style=&quot;&quot;&gt;&lt;span style=&quot;background-color: transparent; color: light-dark(rgb(46, 52, 64), rgb(187, 193, 203)); font-size: 14px; text-wrap: nowrap;&quot;&gt;&amp;nbsp;T：条件成立执行&lt;/span&gt;&lt;/div&gt;" style="rounded=0;whiteSpace=wrap;html=1;strokeWidth=1;fillColor=#ECEFF4;strokeColor=#2E3440;fontColor=#2E3440;fillOpacity=50;labelBackgroundColor=none;align=left;" parent="1" vertex="1">
          <mxGeometry x="950" y="685" width="140" height="20" as="geometry" />
        </mxCell>
        <mxCell id="geT0XaplCj7s3EuTZbNQ-7" value="&lt;div style=&quot;&quot;&gt;&lt;span style=&quot;background-color: transparent; color: light-dark(rgb(46, 52, 64), rgb(187, 193, 203)); font-size: 14px; text-wrap: nowrap;&quot;&gt;&amp;nbsp;E：条件不成立执行&lt;/span&gt;&lt;/div&gt;" style="rounded=0;whiteSpace=wrap;html=1;strokeWidth=1;fillColor=#ECEFF4;strokeColor=#2E3440;fontColor=#2E3440;fillOpacity=50;labelBackgroundColor=none;align=left;" parent="1" vertex="1">
          <mxGeometry x="950" y="725" width="140" height="20" as="geometry" />
        </mxCell>
        <mxCell id="geT0XaplCj7s3EuTZbNQ-9" value="&lt;font&gt;&lt;font&gt;IT 后面最多跟 3 个后缀&amp;nbsp;&lt;/font&gt;&lt;/font&gt;" style="text;html=1;align=left;verticalAlign=middle;resizable=0;points=[];autosize=1;strokeColor=none;fillColor=none;fontColor=#2E3440;fontSize=14;" parent="1" vertex="1">
          <mxGeometry x="950" y="790" width="170" height="30" as="geometry" />
        </mxCell>
        <mxCell id="geT0XaplCj7s3EuTZbNQ-10" value="GE、NE、EQ 等等" style="text;html=1;align=left;verticalAlign=middle;resizable=0;points=[];autosize=1;strokeColor=none;fillColor=none;fontColor=#2E3440;fontSize=14;fontFamily=JetBrainsMono NFP;" parent="1" vertex="1">
          <mxGeometry x="1220" y="575" width="140" height="30" as="geometry" />
        </mxCell>
        <mxCell id="geT0XaplCj7s3EuTZbNQ-12" value="&lt;font&gt;&lt;font&gt;T（then）、E（else）&lt;/font&gt;&lt;/font&gt;" style="text;html=1;align=left;verticalAlign=middle;resizable=0;points=[];autosize=1;strokeColor=none;fillColor=none;fontColor=#2E3440;fontSize=14;fontFamily=JetBrainsMono NFP;" parent="1" vertex="1">
          <mxGeometry x="930" y="575" width="180" height="30" as="geometry" />
        </mxCell>
        <mxCell id="geT0XaplCj7s3EuTZbNQ-13" value="&lt;font style=&quot;font-size: 14px; text-wrap: nowrap;&quot;&gt;&amp;nbsp;ITTE&lt;/font&gt;&lt;span style=&quot;font-size: 14px; text-wrap: nowrap;&quot;&gt;&amp;nbsp; 条件码&lt;/span&gt;" style="rounded=0;whiteSpace=wrap;html=1;strokeWidth=1;fillColor=#ECEFF4;strokeColor=#2E3440;fontColor=#2E3440;fillOpacity=50;labelBackgroundColor=none;align=left;" parent="1" vertex="1">
          <mxGeometry x="950" y="665" width="140" height="20" as="geometry" />
        </mxCell>
        <mxCell id="geT0XaplCj7s3EuTZbNQ-18" value="" style="endArrow=none;html=1;rounded=0;fontFamily=JetBrainsMono NFP;fontSize=12;fontColor=#2E3440;labelBackgroundColor=none;autosize=1;resizable=0;" parent="1" edge="1">
          <mxGeometry width="50" height="50" relative="1" as="geometry">
            <mxPoint x="1110" y="590" as="sourcePoint" />
            <mxPoint x="1110" y="560" as="targetPoint" />
          </mxGeometry>
        </mxCell>
        <mxCell id="geT0XaplCj7s3EuTZbNQ-21" value="" style="endArrow=blockThin;html=1;rounded=0;endFill=1;entryX=1;entryY=0.5;entryDx=0;entryDy=0;strokeColor=#2E3440;fontColor=#2E3440;fontFamily=JetBrainsMono NFP;" parent="1" edge="1">
          <mxGeometry width="50" height="50" relative="1" as="geometry">
            <mxPoint x="1110" y="589.71" as="sourcePoint" />
            <mxPoint x="1080" y="589.71" as="targetPoint" />
          </mxGeometry>
        </mxCell>
        <mxCell id="geT0XaplCj7s3EuTZbNQ-22" value="" style="endArrow=none;html=1;rounded=0;fontFamily=JetBrainsMono NFP;fontSize=12;fontColor=#2E3440;labelBackgroundColor=none;autosize=1;resizable=0;" parent="1" edge="1">
          <mxGeometry width="50" height="50" relative="1" as="geometry">
            <mxPoint x="1174.71" y="590" as="sourcePoint" />
            <mxPoint x="1175" y="560" as="targetPoint" />
          </mxGeometry>
        </mxCell>
        <mxCell id="geT0XaplCj7s3EuTZbNQ-23" value="" style="endArrow=blockThin;html=1;rounded=0;endFill=1;strokeColor=#2E3440;fontColor=#2E3440;fontFamily=JetBrainsMono NFP;" parent="1" edge="1">
          <mxGeometry width="50" height="50" relative="1" as="geometry">
            <mxPoint x="1175" y="590" as="sourcePoint" />
            <mxPoint x="1215" y="590" as="targetPoint" />
          </mxGeometry>
        </mxCell>
        <mxCell id="geT0XaplCj7s3EuTZbNQ-24" value="&lt;div style=&quot;&quot;&gt;&lt;span style=&quot;background-color: transparent; color: light-dark(rgb(46, 52, 64), rgb(187, 193, 203)); font-size: 14px; text-wrap: nowrap;&quot;&gt;&amp;nbsp;T：条件成立执行&lt;/span&gt;&lt;/div&gt;" style="rounded=0;whiteSpace=wrap;html=1;strokeWidth=1;fillColor=#ECEFF4;strokeColor=#2E3440;fontColor=#2E3440;fillOpacity=50;labelBackgroundColor=none;align=left;" parent="1" vertex="1">
          <mxGeometry x="950" y="705" width="140" height="20" as="geometry" />
        </mxCell>
        <mxCell id="geT0XaplCj7s3EuTZbNQ-25" value="&lt;div style=&quot;&quot;&gt;&lt;span style=&quot;font-size: 14px; text-wrap: nowrap;&quot;&gt;ADDEQ&amp;nbsp; R0,&amp;nbsp; R1,&amp;nbsp; #1&lt;/span&gt;&lt;/div&gt;" style="rounded=0;whiteSpace=wrap;html=1;strokeWidth=1;fillColor=#ECEFF4;strokeColor=#2E3440;fontColor=#2E3440;fillOpacity=50;labelBackgroundColor=none;align=left;" parent="1" vertex="1">
          <mxGeometry x="1150" y="685" width="140" height="20" as="geometry" />
        </mxCell>
        <mxCell id="geT0XaplCj7s3EuTZbNQ-27" value="&lt;font style=&quot;font-size: 14px; text-wrap: nowrap;&quot;&gt;&amp;nbsp;ITTE&lt;/font&gt;&lt;span style=&quot;font-size: 14px; text-wrap: nowrap;&quot;&gt;&amp;nbsp; EQ&lt;/span&gt;" style="rounded=0;whiteSpace=wrap;html=1;strokeWidth=1;fillColor=#ECEFF4;strokeColor=#2E3440;fontColor=#2E3440;fillOpacity=50;labelBackgroundColor=none;align=left;" parent="1" vertex="1">
          <mxGeometry x="1150" y="665" width="140" height="20" as="geometry" />
        </mxCell>
        <mxCell id="geT0XaplCj7s3EuTZbNQ-29" value="&lt;div style=&quot;&quot;&gt;&lt;span style=&quot;font-size: 14px; text-wrap: nowrap;&quot;&gt;ADDEQ&amp;nbsp; R0,&amp;nbsp; R2,&amp;nbsp; #1&lt;/span&gt;&lt;/div&gt;" style="rounded=0;whiteSpace=wrap;html=1;strokeWidth=1;fillColor=#ECEFF4;strokeColor=#2E3440;fontColor=#2E3440;fillOpacity=50;labelBackgroundColor=none;align=left;" parent="1" vertex="1">
          <mxGeometry x="1150" y="705" width="140" height="20" as="geometry" />
        </mxCell>
        <mxCell id="geT0XaplCj7s3EuTZbNQ-30" value="&lt;div style=&quot;&quot;&gt;&lt;span style=&quot;font-size: 14px; text-wrap: nowrap;&quot;&gt;ADDNE&amp;nbsp; R0,&amp;nbsp; R3,&amp;nbsp; #1&lt;/span&gt;&lt;/div&gt;" style="rounded=0;whiteSpace=wrap;html=1;strokeWidth=1;fillColor=#ECEFF4;strokeColor=#2E3440;fontColor=#2E3440;fillOpacity=50;labelBackgroundColor=none;align=left;" parent="1" vertex="1">
          <mxGeometry x="1150" y="725" width="140" height="20" as="geometry" />
        </mxCell>
        <mxCell id="geT0XaplCj7s3EuTZbNQ-31" value="&lt;span style=&quot;font-size: 14px; text-wrap: nowrap;&quot;&gt;CMP&amp;nbsp; R0,&amp;nbsp; #1&lt;/span&gt;" style="rounded=0;whiteSpace=wrap;html=1;strokeWidth=1;fillColor=#ECEFF4;strokeColor=#2E3440;fontColor=#2E3440;fillOpacity=50;labelBackgroundColor=none;align=left;" parent="1" vertex="1">
          <mxGeometry x="950" y="645" width="140" height="20" as="geometry" />
        </mxCell>
        <mxCell id="geT0XaplCj7s3EuTZbNQ-32" value="&lt;span style=&quot;text-wrap: nowrap;&quot;&gt;TBB [PC, 3]&lt;/span&gt;" style="rounded=0;whiteSpace=wrap;html=1;strokeWidth=1;fillColor=#ECEFF4;strokeColor=#2E3440;fontColor=#2E3440;fillOpacity=50;labelBackgroundColor=none;align=center;fontFamily=JetBrainsMono NFP;fontSize=14;" parent="1" vertex="1">
          <mxGeometry x="1760" y="560" width="140" height="80" as="geometry" />
        </mxCell>
        <mxCell id="geT0XaplCj7s3EuTZbNQ-34" value="&lt;font&gt;&lt;font&gt;T 与 E 任意组合&amp;nbsp;&lt;/font&gt;&lt;/font&gt;" style="text;html=1;align=left;verticalAlign=middle;resizable=0;points=[];autosize=1;strokeColor=none;fillColor=none;fontColor=#2E3440;fontSize=14;" parent="1" vertex="1">
          <mxGeometry x="950" y="815" width="130" height="30" as="geometry" />
        </mxCell>
        <mxCell id="geT0XaplCj7s3EuTZbNQ-35" value="&lt;font&gt;&lt;font&gt;如：ITE、ITTE、ITTET 等等&lt;/font&gt;&lt;/font&gt;" style="text;html=1;align=left;verticalAlign=middle;resizable=0;points=[];autosize=1;strokeColor=none;fillColor=none;fontColor=#2E3440;fontSize=14;" parent="1" vertex="1">
          <mxGeometry x="950" y="840" width="200" height="30" as="geometry" />
        </mxCell>
        <mxCell id="geT0XaplCj7s3EuTZbNQ-36" value="&lt;span style=&quot;font-size: 14px; text-wrap: nowrap;&quot;&gt;CMP&amp;nbsp; R0,&amp;nbsp; #1&lt;/span&gt;" style="rounded=0;whiteSpace=wrap;html=1;strokeWidth=1;fillColor=#ECEFF4;strokeColor=#2E3440;fontColor=#2E3440;fillOpacity=50;labelBackgroundColor=none;align=left;" parent="1" vertex="1">
          <mxGeometry x="1160" y="655" width="140" height="20" as="geometry" />
        </mxCell>
        <mxCell id="geT0XaplCj7s3EuTZbNQ-37" value="&lt;span style=&quot;text-wrap: nowrap;&quot;&gt;tab0 = 0x4&lt;/span&gt;" style="rounded=0;whiteSpace=wrap;html=1;strokeWidth=1;fillColor=#ECEFF4;strokeColor=#2E3440;fontColor=#2E3440;fillOpacity=50;labelBackgroundColor=none;align=center;fontFamily=JetBrainsMono NFP;fontSize=14;" parent="1" vertex="1">
          <mxGeometry x="1760" y="640" width="140" height="20" as="geometry" />
        </mxCell>
        <mxCell id="geT0XaplCj7s3EuTZbNQ-40" value="&lt;span style=&quot;text-wrap: nowrap;&quot;&gt;tab1 = 0x6&lt;/span&gt;" style="rounded=0;whiteSpace=wrap;html=1;strokeWidth=1;fillColor=#ECEFF4;strokeColor=#2E3440;fontColor=#2E3440;fillOpacity=50;labelBackgroundColor=none;align=center;fontFamily=JetBrainsMono NFP;fontSize=14;" parent="1" vertex="1">
          <mxGeometry x="1760" y="660" width="140" height="20" as="geometry" />
        </mxCell>
        <mxCell id="geT0XaplCj7s3EuTZbNQ-41" value="&lt;span style=&quot;text-wrap: nowrap;&quot;&gt;tab2 = 0x8&lt;/span&gt;" style="rounded=0;whiteSpace=wrap;html=1;strokeWidth=1;fillColor=#ECEFF4;strokeColor=#2E3440;fontColor=#2E3440;fillOpacity=50;labelBackgroundColor=none;align=center;fontFamily=JetBrainsMono NFP;fontSize=14;" parent="1" vertex="1">
          <mxGeometry x="1760" y="680" width="140" height="20" as="geometry" />
        </mxCell>
        <mxCell id="geT0XaplCj7s3EuTZbNQ-42" value="&lt;span style=&quot;text-wrap: nowrap;&quot;&gt;&lt;font style=&quot;color: rgb(191, 97, 106);&quot;&gt;tab3 =&amp;nbsp;&lt;font&gt;0xA&lt;/font&gt;&lt;/font&gt;&lt;/span&gt;" style="rounded=0;whiteSpace=wrap;html=1;strokeWidth=1;fillColor=#ECEFF4;strokeColor=#2E3440;fontColor=#2E3440;fillOpacity=50;labelBackgroundColor=none;align=center;fontFamily=JetBrainsMono NFP;fontSize=14;" parent="1" vertex="1">
          <mxGeometry x="1760" y="700" width="140" height="20" as="geometry" />
        </mxCell>
        <mxCell id="geT0XaplCj7s3EuTZbNQ-43" value="&lt;span style=&quot;text-wrap: nowrap;&quot;&gt;指令&lt;/span&gt;" style="rounded=0;whiteSpace=wrap;html=1;strokeWidth=1;fillColor=#ECEFF4;strokeColor=#2E3440;fontColor=#2E3440;fillOpacity=50;labelBackgroundColor=none;align=center;fontFamily=JetBrainsMono NFP;fontSize=14;" parent="1" vertex="1">
          <mxGeometry x="1760" y="760" width="140" height="80" as="geometry" />
        </mxCell>
        <mxCell id="geT0XaplCj7s3EuTZbNQ-44" value="&lt;span style=&quot;text-wrap: nowrap;&quot;&gt;指令&lt;/span&gt;" style="rounded=0;whiteSpace=wrap;html=1;strokeWidth=1;fillColor=#ECEFF4;strokeColor=#2E3440;fontColor=#2E3440;fillOpacity=50;labelBackgroundColor=none;align=center;fontFamily=JetBrainsMono NFP;fontSize=14;" parent="1" vertex="1">
          <mxGeometry x="1760" y="840" width="140" height="80" as="geometry" />
        </mxCell>
        <mxCell id="geT0XaplCj7s3EuTZbNQ-45" value="&lt;span style=&quot;text-wrap: nowrap;&quot;&gt;指令&lt;/span&gt;" style="rounded=0;whiteSpace=wrap;html=1;strokeWidth=1;fillColor=#ECEFF4;strokeColor=#2E3440;fontColor=#2E3440;fillOpacity=50;labelBackgroundColor=none;align=center;fontFamily=JetBrainsMono NFP;fontSize=14;" parent="1" vertex="1">
          <mxGeometry x="1760" y="920" width="140" height="80" as="geometry" />
        </mxCell>
        <mxCell id="geT0XaplCj7s3EuTZbNQ-46" value="&lt;span style=&quot;text-wrap: nowrap;&quot;&gt;指令&lt;/span&gt;" style="rounded=0;whiteSpace=wrap;html=1;strokeWidth=1;fillColor=#ECEFF4;strokeColor=#2E3440;fontColor=#2E3440;fillOpacity=50;labelBackgroundColor=none;align=center;fontFamily=JetBrainsMono NFP;fontSize=14;" parent="1" vertex="1">
          <mxGeometry x="1760" y="1000" width="140" height="80" as="geometry" />
        </mxCell>
        <mxCell id="geT0XaplCj7s3EuTZbNQ-48" value="0x1000" style="text;html=1;align=center;verticalAlign=middle;resizable=0;points=[];autosize=1;strokeColor=none;fillColor=none;fontColor=#2E3440;fontSize=14;fontFamily=JetBrainsMono NFP;" parent="1" vertex="1">
          <mxGeometry x="1685" y="550" width="70" height="30" as="geometry" />
        </mxCell>
        <mxCell id="geT0XaplCj7s3EuTZbNQ-49" value="0x1004" style="text;html=1;align=center;verticalAlign=middle;resizable=0;points=[];autosize=1;strokeColor=none;fillColor=none;fontColor=#2E3440;fontSize=14;fontFamily=JetBrainsMono NFP;" parent="1" vertex="1">
          <mxGeometry x="1685" y="635" width="70" height="30" as="geometry" />
        </mxCell>
        <mxCell id="geT0XaplCj7s3EuTZbNQ-50" value="0x1005" style="text;html=1;align=center;verticalAlign=middle;resizable=0;points=[];autosize=1;strokeColor=none;fillColor=none;fontColor=#2E3440;fontSize=14;fontFamily=JetBrainsMono NFP;" parent="1" vertex="1">
          <mxGeometry x="1685" y="655" width="70" height="30" as="geometry" />
        </mxCell>
        <mxCell id="geT0XaplCj7s3EuTZbNQ-51" value="0x1006" style="text;html=1;align=center;verticalAlign=middle;resizable=0;points=[];autosize=1;strokeColor=none;fillColor=none;fontColor=#2E3440;fontSize=14;fontFamily=JetBrainsMono NFP;" parent="1" vertex="1">
          <mxGeometry x="1685" y="675" width="70" height="30" as="geometry" />
        </mxCell>
        <mxCell id="geT0XaplCj7s3EuTZbNQ-52" value="0x1007" style="text;html=1;align=center;verticalAlign=middle;resizable=0;points=[];autosize=1;strokeColor=none;fillColor=none;fontColor=#2E3440;fontSize=14;fontFamily=JetBrainsMono NFP;" parent="1" vertex="1">
          <mxGeometry x="1685" y="695" width="70" height="30" as="geometry" />
        </mxCell>
        <mxCell id="geT0XaplCj7s3EuTZbNQ-53" value="0x100C" style="text;html=1;align=center;verticalAlign=middle;resizable=0;points=[];autosize=1;strokeColor=none;fillColor=none;fontColor=#2E3440;fontSize=14;fontFamily=JetBrainsMono NFP;" parent="1" vertex="1">
          <mxGeometry x="1685" y="755" width="70" height="30" as="geometry" />
        </mxCell>
        <mxCell id="geT0XaplCj7s3EuTZbNQ-56" value="0x1010" style="text;html=1;align=center;verticalAlign=middle;resizable=0;points=[];autosize=1;strokeColor=none;fillColor=none;fontColor=#2E3440;fontSize=14;fontFamily=JetBrainsMono NFP;" parent="1" vertex="1">
          <mxGeometry x="1685" y="835" width="70" height="30" as="geometry" />
        </mxCell>
        <mxCell id="geT0XaplCj7s3EuTZbNQ-57" value="0x1014" style="text;html=1;align=center;verticalAlign=middle;resizable=0;points=[];autosize=1;strokeColor=none;fillColor=none;fontColor=#2E3440;fontSize=14;fontFamily=JetBrainsMono NFP;" parent="1" vertex="1">
          <mxGeometry x="1685" y="920" width="70" height="30" as="geometry" />
        </mxCell>
        <mxCell id="geT0XaplCj7s3EuTZbNQ-58" value="0x1018" style="text;html=1;align=center;verticalAlign=middle;resizable=0;points=[];autosize=1;strokeColor=none;fillColor=none;fontColor=#2E3440;fontSize=14;fontFamily=JetBrainsMono NFP;" parent="1" vertex="1">
          <mxGeometry x="1685" y="1000" width="70" height="30" as="geometry" />
        </mxCell>
        <mxCell id="geT0XaplCj7s3EuTZbNQ-60" value="..." style="text;html=1;align=center;verticalAlign=middle;resizable=0;points=[];autosize=1;strokeColor=none;fillColor=none;fontColor=#2E3440;fontFamily=JetBrainsMono NFP;fontStyle=1;fontSize=14;" parent="1" vertex="1">
          <mxGeometry x="1805" y="725" width="50" height="30" as="geometry" />
        </mxCell>
        <mxCell id="geT0XaplCj7s3EuTZbNQ-62" value="&lt;span&gt;&lt;font&gt;&lt;font style=&quot;color: rgb(191, 97, 106);&quot;&gt;tab3 = (case3 - jumptable)/2 = (&lt;/font&gt;&lt;span style=&quot;color: light-dark(rgb(191, 97, 106), rgb(191, 97, 106)); background-color: transparent;&quot;&gt;0x1018 - 0x1004)/2 = 0xA&lt;/span&gt;&lt;/font&gt;&lt;/span&gt;" style="text;html=1;align=left;verticalAlign=middle;resizable=0;points=[];autosize=1;strokeColor=none;fillColor=none;fontColor=#2E3440;fontStyle=0;fontSize=14;fontFamily=JetBrainsMono NFP;" parent="1" vertex="1">
          <mxGeometry x="2060" y="695" width="490" height="30" as="geometry" />
        </mxCell>
        <mxCell id="geT0XaplCj7s3EuTZbNQ-64" value="PC" style="rounded=0;whiteSpace=wrap;html=1;strokeWidth=1;fillColor=#ECEFF4;strokeColor=#2E3440;fontColor=#2E3440;fillOpacity=50;labelBackgroundColor=none;fontSize=14;fontFamily=JetBrainsMono NFP;" parent="1" vertex="1">
          <mxGeometry x="2060" y="640" width="50" height="20" as="geometry" />
        </mxCell>
        <mxCell id="geT0XaplCj7s3EuTZbNQ-71" value="当前执行" style="rounded=0;whiteSpace=wrap;html=1;strokeWidth=1;fillColor=#ECEFF4;strokeColor=#2E3440;fontColor=#2E3440;fillOpacity=50;labelBackgroundColor=none;fontSize=14;fontFamily=JetBrainsMono NFP;" parent="1" vertex="1">
          <mxGeometry x="1930" y="560" width="70" height="20" as="geometry" />
        </mxCell>
        <mxCell id="geT0XaplCj7s3EuTZbNQ-74" value="" style="endArrow=blockThin;html=1;rounded=0;exitX=0;exitY=0.5;exitDx=0;exitDy=0;endFill=1;entryX=1;entryY=0.5;entryDx=0;entryDy=0;strokeColor=#2E3440;fontSize=14;fontFamily=JetBrainsMono NFP;" parent="1" source="geT0XaplCj7s3EuTZbNQ-71" edge="1">
          <mxGeometry width="50" height="50" relative="1" as="geometry">
            <mxPoint x="1960" y="569.62" as="sourcePoint" />
            <mxPoint x="1900" y="569.62" as="targetPoint" />
          </mxGeometry>
        </mxCell>
        <mxCell id="geT0XaplCj7s3EuTZbNQ-77" value="jumptable + 3" style="rounded=0;whiteSpace=wrap;html=1;strokeWidth=1;fillColor=#ECEFF4;strokeColor=#2E3440;fontColor=#2E3440;fillOpacity=50;labelBackgroundColor=none;fontSize=14;fontFamily=JetBrainsMono NFP;" parent="1" vertex="1">
          <mxGeometry x="1930" y="700" width="120" height="20" as="geometry" />
        </mxCell>
        <mxCell id="geT0XaplCj7s3EuTZbNQ-79" value="case0" style="rounded=0;whiteSpace=wrap;html=1;strokeWidth=1;fillColor=#ECEFF4;strokeColor=#2E3440;fontColor=#2E3440;fillOpacity=50;labelBackgroundColor=none;fontSize=14;fontFamily=JetBrainsMono NFP;" parent="1" vertex="1">
          <mxGeometry x="1930" y="760" width="50" height="20" as="geometry" />
        </mxCell>
        <mxCell id="geT0XaplCj7s3EuTZbNQ-80" value="case1" style="rounded=0;whiteSpace=wrap;html=1;strokeWidth=1;fillColor=#ECEFF4;strokeColor=#2E3440;fontColor=#2E3440;fillOpacity=50;labelBackgroundColor=none;fontSize=14;fontFamily=JetBrainsMono NFP;" parent="1" vertex="1">
          <mxGeometry x="1930" y="840" width="50" height="20" as="geometry" />
        </mxCell>
        <mxCell id="geT0XaplCj7s3EuTZbNQ-82" value="case2" style="rounded=0;whiteSpace=wrap;html=1;strokeWidth=1;fillColor=#ECEFF4;strokeColor=#2E3440;fontColor=#2E3440;fillOpacity=50;labelBackgroundColor=none;fontSize=14;fontFamily=JetBrainsMono NFP;" parent="1" vertex="1">
          <mxGeometry x="1930" y="920" width="50" height="20" as="geometry" />
        </mxCell>
        <mxCell id="geT0XaplCj7s3EuTZbNQ-84" value="case3" style="rounded=0;whiteSpace=wrap;html=1;strokeWidth=1;fillColor=#ECEFF4;strokeColor=#2E3440;fontColor=#2E3440;fillOpacity=50;labelBackgroundColor=none;fontSize=14;fontFamily=JetBrainsMono NFP;" parent="1" vertex="1">
          <mxGeometry x="1930" y="1000" width="50" height="20" as="geometry" />
        </mxCell>
        <mxCell id="geT0XaplCj7s3EuTZbNQ-85" value="" style="endArrow=blockThin;html=1;rounded=0;exitX=0;exitY=0.5;exitDx=0;exitDy=0;endFill=1;entryX=1;entryY=0.5;entryDx=0;entryDy=0;strokeColor=#2E3440;fontSize=14;fontFamily=JetBrainsMono NFP;" parent="1" source="geT0XaplCj7s3EuTZbNQ-90" edge="1">
          <mxGeometry width="50" height="50" relative="1" as="geometry">
            <mxPoint x="1960" y="649.6" as="sourcePoint" />
            <mxPoint x="1900" y="649.6" as="targetPoint" />
          </mxGeometry>
        </mxCell>
        <mxCell id="geT0XaplCj7s3EuTZbNQ-86" value="" style="endArrow=blockThin;html=1;rounded=0;exitX=0;exitY=0.5;exitDx=0;exitDy=0;endFill=1;entryX=1;entryY=0.5;entryDx=0;entryDy=0;strokeColor=#2E3440;fontSize=14;fontFamily=JetBrainsMono NFP;" parent="1" source="geT0XaplCj7s3EuTZbNQ-79" edge="1">
          <mxGeometry width="50" height="50" relative="1" as="geometry">
            <mxPoint x="1960" y="769.6" as="sourcePoint" />
            <mxPoint x="1900" y="769.6" as="targetPoint" />
          </mxGeometry>
        </mxCell>
        <mxCell id="geT0XaplCj7s3EuTZbNQ-87" value="" style="endArrow=blockThin;html=1;rounded=0;exitX=0;exitY=0.5;exitDx=0;exitDy=0;endFill=1;entryX=1;entryY=0.5;entryDx=0;entryDy=0;strokeColor=#2E3440;fontSize=14;fontFamily=JetBrainsMono NFP;" parent="1" source="geT0XaplCj7s3EuTZbNQ-80" edge="1">
          <mxGeometry width="50" height="50" relative="1" as="geometry">
            <mxPoint x="1960" y="849.6" as="sourcePoint" />
            <mxPoint x="1900" y="849.6" as="targetPoint" />
          </mxGeometry>
        </mxCell>
        <mxCell id="geT0XaplCj7s3EuTZbNQ-88" value="" style="endArrow=blockThin;html=1;rounded=0;exitX=0;exitY=0.5;exitDx=0;exitDy=0;endFill=1;entryX=1;entryY=0.5;entryDx=0;entryDy=0;strokeColor=#2E3440;fontSize=14;fontFamily=JetBrainsMono NFP;" parent="1" source="geT0XaplCj7s3EuTZbNQ-82" edge="1">
          <mxGeometry width="50" height="50" relative="1" as="geometry">
            <mxPoint x="1960" y="929.6" as="sourcePoint" />
            <mxPoint x="1900" y="929.6" as="targetPoint" />
          </mxGeometry>
        </mxCell>
        <mxCell id="geT0XaplCj7s3EuTZbNQ-89" value="" style="endArrow=blockThin;html=1;rounded=0;exitX=0;exitY=0.5;exitDx=0;exitDy=0;endFill=1;entryX=1;entryY=0.5;entryDx=0;entryDy=0;strokeColor=#2E3440;fontSize=14;fontFamily=JetBrainsMono NFP;" parent="1" source="geT0XaplCj7s3EuTZbNQ-84" edge="1">
          <mxGeometry width="50" height="50" relative="1" as="geometry">
            <mxPoint x="1960" y="1010" as="sourcePoint" />
            <mxPoint x="1900" y="1010" as="targetPoint" />
          </mxGeometry>
        </mxCell>
        <mxCell id="geT0XaplCj7s3EuTZbNQ-90" value="jumptable" style="rounded=0;whiteSpace=wrap;html=1;strokeWidth=1;fillColor=#ECEFF4;strokeColor=#2E3440;fontColor=#2E3440;fillOpacity=50;labelBackgroundColor=none;fontSize=14;fontFamily=JetBrainsMono NFP;" parent="1" vertex="1">
          <mxGeometry x="1930" y="640" width="100" height="20" as="geometry" />
        </mxCell>
        <mxCell id="geT0XaplCj7s3EuTZbNQ-91" value="" style="endArrow=blockThin;html=1;rounded=0;exitX=0;exitY=0.5;exitDx=0;exitDy=0;endFill=1;entryX=1;entryY=0.5;entryDx=0;entryDy=0;strokeColor=#2E3440;fontSize=14;fontFamily=JetBrainsMono NFP;" parent="1" source="geT0XaplCj7s3EuTZbNQ-77" edge="1">
          <mxGeometry width="50" height="50" relative="1" as="geometry">
            <mxPoint x="1960" y="709.6" as="sourcePoint" />
            <mxPoint x="1900" y="709.6" as="targetPoint" />
          </mxGeometry>
        </mxCell>
        <mxCell id="geT0XaplCj7s3EuTZbNQ-93" value="" style="endArrow=blockThin;html=1;rounded=0;exitX=0;exitY=0.5;exitDx=0;exitDy=0;endFill=1;entryX=1;entryY=0.5;entryDx=0;entryDy=0;strokeColor=#2E3440;fontSize=14;fontFamily=JetBrainsMono NFP;" parent="1" source="geT0XaplCj7s3EuTZbNQ-64" target="geT0XaplCj7s3EuTZbNQ-90" edge="1">
          <mxGeometry width="50" height="50" relative="1" as="geometry">
            <mxPoint x="1970" y="659.6" as="sourcePoint" />
            <mxPoint x="1910" y="659.6" as="targetPoint" />
          </mxGeometry>
        </mxCell>
        <mxCell id="geT0XaplCj7s3EuTZbNQ-96" value="新 PC" style="rounded=0;whiteSpace=wrap;html=1;strokeWidth=1;fillColor=#ECEFF4;strokeColor=#2E3440;fontColor=#2E3440;fillOpacity=50;labelBackgroundColor=none;fontSize=14;fontFamily=JetBrainsMono NFP;" parent="1" vertex="1">
          <mxGeometry x="2010" y="1000" width="50" height="20" as="geometry" />
        </mxCell>
        <mxCell id="geT0XaplCj7s3EuTZbNQ-97" value="&lt;span&gt;&lt;font&gt;&lt;font style=&quot;color: rgb(191, 97, 106);&quot;&gt;= jumptable + tab3*2 = 0x1004 + 0xA*2 = 0x1018&lt;/font&gt;&lt;/font&gt;&lt;/span&gt;" style="text;html=1;align=left;verticalAlign=middle;resizable=0;points=[];autosize=1;strokeColor=none;fillColor=none;fontColor=#2E3440;fontStyle=0;fontSize=14;fontFamily=JetBrainsMono NFP;" parent="1" vertex="1">
          <mxGeometry x="2060" y="995" width="410" height="30" as="geometry" />
        </mxCell>
        <mxCell id="geT0XaplCj7s3EuTZbNQ-98" value="" style="endArrow=blockThin;html=1;rounded=0;exitX=0;exitY=0.5;exitDx=0;exitDy=0;endFill=1;entryX=1;entryY=0.5;entryDx=0;entryDy=0;strokeColor=#2E3440;fontSize=14;fontFamily=JetBrainsMono NFP;" parent="1" source="geT0XaplCj7s3EuTZbNQ-96" edge="1">
          <mxGeometry width="50" height="50" relative="1" as="geometry">
            <mxPoint x="2010" y="1009.6" as="sourcePoint" />
            <mxPoint x="1980" y="1009.6" as="targetPoint" />
          </mxGeometry>
        </mxCell>
        <mxCell id="geT0XaplCj7s3EuTZbNQ-101" value="" style="endArrow=blockThin;html=1;rounded=0;endFill=1;strokeColor=#BF616A;fontSize=14;fontFamily=JetBrainsMono NFP;" parent="1" edge="1">
          <mxGeometry width="50" height="50" relative="1" as="geometry">
            <mxPoint x="2030" y="720" as="sourcePoint" />
            <mxPoint x="2030" y="1000" as="targetPoint" />
          </mxGeometry>
        </mxCell>
        <mxCell id="Y5k4C27kbIV8P3GDiavy-3" value="&lt;span style=&quot;&quot;&gt;&lt;b style=&quot;&quot;&gt;&lt;font style=&quot;font-size: 15px;&quot;&gt;TBB [Rn, Rm]&lt;/font&gt;&lt;/b&gt;&lt;/span&gt;" style="text;html=1;align=center;verticalAlign=middle;resizable=0;points=[];autosize=1;strokeColor=none;fillColor=none;fontColor=#BF616A;fontFamily=JetBrainsMono NFP;" vertex="1" parent="1">
          <mxGeometry x="1765" y="530" width="130" height="30" as="geometry" />
        </mxCell>
        <mxCell id="Y5k4C27kbIV8P3GDiavy-4" value="&lt;font color=&quot;#bf616a&quot;&gt;Cortex-M3/4 中，读 PC 寄存器的返回值 = 当前指令地址 + 4&lt;/font&gt;" style="text;html=1;align=left;verticalAlign=middle;resizable=0;points=[];autosize=1;strokeColor=none;fillColor=none;fontColor=#2E3440;fontStyle=0;fontSize=14;fontFamily=JetBrainsMono NFP;" vertex="1" parent="1">
          <mxGeometry x="2120" y="635" width="440" height="30" as="geometry" />
        </mxCell>
        <mxCell id="Y5k4C27kbIV8P3GDiavy-5" value="&lt;font style=&quot;line-height: 140%;&quot; color=&quot;#bf616a&quot;&gt;Cortex-M3/4 支持 16 位指令&lt;/font&gt;&lt;div style=&quot;line-height: 140%;&quot;&gt;&lt;font color=&quot;#bf616a&quot;&gt;指令按 2 字节边界对齐&lt;/font&gt;&lt;div&gt;&lt;font color=&quot;#bf616a&quot;&gt;指令地址的最后一位永远是 0&lt;/font&gt;&lt;div&gt;&lt;font color=&quot;#bf616a&quot;&gt;所以除以 2 增加偏移寻址的范围&lt;/font&gt;&lt;/div&gt;&lt;/div&gt;&lt;/div&gt;" style="text;html=1;align=left;verticalAlign=middle;resizable=0;points=[];autosize=1;strokeColor=none;fillColor=none;fontColor=#2E3440;fontStyle=0;fontSize=14;fontFamily=JetBrainsMono NFP;" vertex="1" parent="1">
          <mxGeometry x="2120" y="755" width="230" height="90" as="geometry" />
        </mxCell>
        <mxCell id="Y5k4C27kbIV8P3GDiavy-7" value="取指" style="rounded=0;whiteSpace=wrap;html=1;strokeWidth=1;fillColor=#BF616A;strokeColor=#BF616A;perimeterSpacing=0;glass=0;shadow=0;fillStyle=solid;gradientColor=none;fillOpacity=50;fontColor=#2E3440;" vertex="1" parent="1">
          <mxGeometry x="1920" y="160" width="50" height="20" as="geometry" />
        </mxCell>
        <mxCell id="Y5k4C27kbIV8P3GDiavy-8" value="执行" style="rounded=0;whiteSpace=wrap;html=1;strokeWidth=1;fillColor=#5E81AC;strokeColor=#5E81AC;fontColor=#2E3440;fillOpacity=50;" vertex="1" parent="1">
          <mxGeometry x="2020" y="160" width="50" height="20" as="geometry" />
        </mxCell>
        <mxCell id="Y5k4C27kbIV8P3GDiavy-9" value="&lt;font style=&quot;&quot;&gt;解码&lt;/font&gt;" style="rounded=0;whiteSpace=wrap;html=1;strokeWidth=1;fillColor=#A3BE8C;strokeColor=#A3BE8C;fontColor=#2E3440;fillOpacity=50;" vertex="1" parent="1">
          <mxGeometry x="1970" y="160" width="50" height="20" as="geometry" />
        </mxCell>
        <mxCell id="Y5k4C27kbIV8P3GDiavy-10" value="取指" style="rounded=0;whiteSpace=wrap;html=1;strokeWidth=1;fillColor=#BF616A;strokeColor=#BF616A;perimeterSpacing=0;glass=0;shadow=0;fillStyle=solid;gradientColor=none;fillOpacity=50;fontColor=#2E3440;" vertex="1" parent="1">
          <mxGeometry x="1970" y="180" width="50" height="20" as="geometry" />
        </mxCell>
        <mxCell id="Y5k4C27kbIV8P3GDiavy-11" value="执行" style="rounded=0;whiteSpace=wrap;html=1;strokeWidth=1;fillColor=#5E81AC;strokeColor=#5E81AC;fontColor=#2E3440;fillOpacity=50;" vertex="1" parent="1">
          <mxGeometry x="2070" y="180" width="50" height="20" as="geometry" />
        </mxCell>
        <mxCell id="Y5k4C27kbIV8P3GDiavy-12" value="&lt;font style=&quot;&quot;&gt;解码&lt;/font&gt;" style="rounded=0;whiteSpace=wrap;html=1;strokeWidth=1;fillColor=#A3BE8C;strokeColor=#A3BE8C;fontColor=#2E3440;fillOpacity=50;" vertex="1" parent="1">
          <mxGeometry x="2020" y="180" width="50" height="20" as="geometry" />
        </mxCell>
        <mxCell id="Y5k4C27kbIV8P3GDiavy-13" value="取指" style="rounded=0;whiteSpace=wrap;html=1;strokeWidth=1;fillColor=#BF616A;strokeColor=#BF616A;perimeterSpacing=0;glass=0;shadow=0;fillStyle=solid;gradientColor=none;fillOpacity=50;fontColor=#2E3440;" vertex="1" parent="1">
          <mxGeometry x="2020" y="200" width="50" height="20" as="geometry" />
        </mxCell>
        <mxCell id="Y5k4C27kbIV8P3GDiavy-14" value="执行" style="rounded=0;whiteSpace=wrap;html=1;strokeWidth=1;fillColor=#5E81AC;strokeColor=#5E81AC;fontColor=#2E3440;fillOpacity=50;" vertex="1" parent="1">
          <mxGeometry x="2120" y="200" width="50" height="20" as="geometry" />
        </mxCell>
        <mxCell id="Y5k4C27kbIV8P3GDiavy-15" value="&lt;font style=&quot;&quot;&gt;解码&lt;/font&gt;" style="rounded=0;whiteSpace=wrap;html=1;strokeWidth=1;fillColor=#A3BE8C;strokeColor=#A3BE8C;fontColor=#2E3440;fillOpacity=50;" vertex="1" parent="1">
          <mxGeometry x="2070" y="200" width="50" height="20" as="geometry" />
        </mxCell>
        <mxCell id="Y5k4C27kbIV8P3GDiavy-16" value="取指" style="rounded=0;whiteSpace=wrap;html=1;strokeWidth=1;fillColor=#BF616A;strokeColor=#BF616A;perimeterSpacing=0;glass=0;shadow=0;fillStyle=solid;gradientColor=none;fillOpacity=50;fontColor=#2E3440;" vertex="1" parent="1">
          <mxGeometry x="2070" y="220" width="50" height="20" as="geometry" />
        </mxCell>
        <mxCell id="Y5k4C27kbIV8P3GDiavy-17" value="执行" style="rounded=0;whiteSpace=wrap;html=1;strokeWidth=1;fillColor=#5E81AC;strokeColor=#5E81AC;fontColor=#2E3440;fillOpacity=50;" vertex="1" parent="1">
          <mxGeometry x="2170" y="220" width="50" height="20" as="geometry" />
        </mxCell>
        <mxCell id="Y5k4C27kbIV8P3GDiavy-18" value="&lt;font style=&quot;&quot;&gt;解码&lt;/font&gt;" style="rounded=0;whiteSpace=wrap;html=1;strokeWidth=1;fillColor=#A3BE8C;strokeColor=#A3BE8C;fontColor=#2E3440;fillOpacity=50;" vertex="1" parent="1">
          <mxGeometry x="2120" y="220" width="50" height="20" as="geometry" />
        </mxCell>
        <mxCell id="Y5k4C27kbIV8P3GDiavy-22" value="指令 N" style="text;html=1;align=center;verticalAlign=middle;resizable=0;points=[];autosize=1;strokeColor=none;fillColor=none;fontColor=#2E3440;" vertex="1" parent="1">
          <mxGeometry x="1830" y="154.69999999999993" width="60" height="30" as="geometry" />
        </mxCell>
        <mxCell id="Y5k4C27kbIV8P3GDiavy-23" value="指令 N + 1" style="text;html=1;align=center;verticalAlign=middle;resizable=0;points=[];autosize=1;strokeColor=none;fillColor=none;fontColor=#2E3440;" vertex="1" parent="1">
          <mxGeometry x="1830" y="174.99999999999994" width="80" height="30" as="geometry" />
        </mxCell>
        <mxCell id="Y5k4C27kbIV8P3GDiavy-26" value="指令 N + 2" style="text;html=1;align=center;verticalAlign=middle;resizable=0;points=[];autosize=1;strokeColor=none;fillColor=none;fontColor=#2E3440;" vertex="1" parent="1">
          <mxGeometry x="1830" y="194.99999999999994" width="80" height="30" as="geometry" />
        </mxCell>
        <mxCell id="Y5k4C27kbIV8P3GDiavy-27" value="指令 N + 3" style="text;html=1;align=center;verticalAlign=middle;resizable=0;points=[];autosize=1;strokeColor=none;fillColor=none;fontColor=#2E3440;" vertex="1" parent="1">
          <mxGeometry x="1830" y="214.99999999999994" width="80" height="30" as="geometry" />
        </mxCell>
        <mxCell id="Y5k4C27kbIV8P3GDiavy-29" value="" style="endArrow=blockThin;html=1;rounded=0;endFill=1;strokeColor=#2E3440;fontSize=14;fontFamily=JetBrainsMono NFP;" edge="1" parent="1">
          <mxGeometry width="50" height="50" relative="1" as="geometry">
            <mxPoint x="1920" y="250" as="sourcePoint" />
            <mxPoint x="2220" y="250" as="targetPoint" />
          </mxGeometry>
        </mxCell>
        <mxCell id="Y5k4C27kbIV8P3GDiavy-41" value="指令N+3" style="rounded=0;whiteSpace=wrap;html=1;strokeWidth=1;fillColor=#ECEFF4;strokeColor=#2E3440;fontColor=#2E3440;fillOpacity=50;labelBackgroundColor=none;" vertex="1" parent="1">
          <mxGeometry x="1920" y="380" width="160" height="20" as="geometry" />
        </mxCell>
        <mxCell id="Y5k4C27kbIV8P3GDiavy-42" value="低地址" style="text;html=1;align=center;verticalAlign=middle;resizable=0;points=[];autosize=1;strokeColor=none;fillColor=none;fontColor=#2E3440;" vertex="1" parent="1">
          <mxGeometry x="1860" y="299.99999999999994" width="60" height="30" as="geometry" />
        </mxCell>
        <mxCell id="Y5k4C27kbIV8P3GDiavy-43" value="高地址" style="text;html=1;align=center;verticalAlign=middle;resizable=0;points=[];autosize=1;strokeColor=none;fillColor=none;fontColor=#2E3440;" vertex="1" parent="1">
          <mxGeometry x="1860" y="379.99999999999994" width="60" height="30" as="geometry" />
        </mxCell>
        <mxCell id="Y5k4C27kbIV8P3GDiavy-44" value="" style="endArrow=blockThin;html=1;rounded=0;exitX=0.501;exitY=0.998;exitDx=0;exitDy=0;endFill=1;strokeColor=#2E3440;exitPerimeter=0;" edge="1" parent="1" source="Y5k4C27kbIV8P3GDiavy-42" target="Y5k4C27kbIV8P3GDiavy-43">
          <mxGeometry width="50" height="50" relative="1" as="geometry">
            <mxPoint x="1790" y="300" as="sourcePoint" />
            <mxPoint x="1850" y="370" as="targetPoint" />
          </mxGeometry>
        </mxCell>
        <mxCell id="Y5k4C27kbIV8P3GDiavy-45" value="取指" style="rounded=0;whiteSpace=wrap;html=1;strokeWidth=1;fillColor=#BF616A;strokeColor=#BF616A;perimeterSpacing=0;glass=0;shadow=0;fillStyle=solid;gradientColor=none;fillOpacity=50;fontColor=#2E3440;" vertex="1" parent="1">
          <mxGeometry x="2120" y="319.16999999999996" width="50" height="20" as="geometry" />
        </mxCell>
        <mxCell id="Y5k4C27kbIV8P3GDiavy-46" value="执行" style="rounded=0;whiteSpace=wrap;html=1;strokeWidth=1;fillColor=#5E81AC;strokeColor=#5E81AC;fontColor=#2E3440;fillOpacity=50;" vertex="1" parent="1">
          <mxGeometry x="2220" y="319.16999999999996" width="50" height="20" as="geometry" />
        </mxCell>
        <mxCell id="Y5k4C27kbIV8P3GDiavy-47" value="&lt;font style=&quot;&quot;&gt;解码&lt;/font&gt;" style="rounded=0;whiteSpace=wrap;html=1;strokeWidth=1;fillColor=#A3BE8C;strokeColor=#A3BE8C;fontColor=#2E3440;fillOpacity=50;" vertex="1" parent="1">
          <mxGeometry x="2170" y="319.16999999999996" width="50" height="20" as="geometry" />
        </mxCell>
        <mxCell id="Y5k4C27kbIV8P3GDiavy-48" value="取指" style="rounded=0;whiteSpace=wrap;html=1;strokeWidth=1;fillColor=#BF616A;strokeColor=#BF616A;perimeterSpacing=0;glass=0;shadow=0;fillStyle=solid;gradientColor=none;fillOpacity=50;fontColor=#2E3440;" vertex="1" parent="1">
          <mxGeometry x="2170" y="339.16999999999996" width="50" height="20" as="geometry" />
        </mxCell>
        <mxCell id="Y5k4C27kbIV8P3GDiavy-49" value="执行" style="rounded=0;whiteSpace=wrap;html=1;strokeWidth=1;fillColor=#5E81AC;strokeColor=#5E81AC;fontColor=#2E3440;fillOpacity=50;" vertex="1" parent="1">
          <mxGeometry x="2270" y="339.16999999999996" width="50" height="20" as="geometry" />
        </mxCell>
        <mxCell id="Y5k4C27kbIV8P3GDiavy-50" value="&lt;font style=&quot;&quot;&gt;解码&lt;/font&gt;" style="rounded=0;whiteSpace=wrap;html=1;strokeWidth=1;fillColor=#A3BE8C;strokeColor=#A3BE8C;fontColor=#2E3440;fillOpacity=50;" vertex="1" parent="1">
          <mxGeometry x="2220" y="339.16999999999996" width="50" height="20" as="geometry" />
        </mxCell>
        <mxCell id="Y5k4C27kbIV8P3GDiavy-51" value="取指" style="rounded=0;whiteSpace=wrap;html=1;strokeWidth=1;fillColor=#BF616A;strokeColor=#BF616A;perimeterSpacing=0;glass=0;shadow=0;fillStyle=solid;gradientColor=none;fillOpacity=50;fontColor=#2E3440;" vertex="1" parent="1">
          <mxGeometry x="2220" y="359.16999999999996" width="50" height="20" as="geometry" />
        </mxCell>
        <mxCell id="Y5k4C27kbIV8P3GDiavy-52" value="执行" style="rounded=0;whiteSpace=wrap;html=1;strokeWidth=1;fillColor=#5E81AC;strokeColor=#5E81AC;fontColor=#2E3440;fillOpacity=50;" vertex="1" parent="1">
          <mxGeometry x="2320" y="359.16999999999996" width="50" height="20" as="geometry" />
        </mxCell>
        <mxCell id="Y5k4C27kbIV8P3GDiavy-53" value="&lt;font style=&quot;&quot;&gt;解码&lt;/font&gt;" style="rounded=0;whiteSpace=wrap;html=1;strokeWidth=1;fillColor=#A3BE8C;strokeColor=#A3BE8C;fontColor=#2E3440;fillOpacity=50;" vertex="1" parent="1">
          <mxGeometry x="2270" y="359.16999999999996" width="50" height="20" as="geometry" />
        </mxCell>
        <mxCell id="Y5k4C27kbIV8P3GDiavy-54" value="取指" style="rounded=0;whiteSpace=wrap;html=1;strokeWidth=1;fillColor=#BF616A;strokeColor=#BF616A;perimeterSpacing=0;glass=0;shadow=0;fillStyle=solid;gradientColor=none;fillOpacity=50;fontColor=#2E3440;" vertex="1" parent="1">
          <mxGeometry x="2270" y="379.16999999999996" width="50" height="20" as="geometry" />
        </mxCell>
        <mxCell id="Y5k4C27kbIV8P3GDiavy-55" value="执行" style="rounded=0;whiteSpace=wrap;html=1;strokeWidth=1;fillColor=#5E81AC;strokeColor=#5E81AC;fontColor=#2E3440;fillOpacity=50;" vertex="1" parent="1">
          <mxGeometry x="2370" y="379.16999999999996" width="50" height="20" as="geometry" />
        </mxCell>
        <mxCell id="Y5k4C27kbIV8P3GDiavy-56" value="&lt;font style=&quot;&quot;&gt;解码&lt;/font&gt;" style="rounded=0;whiteSpace=wrap;html=1;strokeWidth=1;fillColor=#A3BE8C;strokeColor=#A3BE8C;fontColor=#2E3440;fillOpacity=50;" vertex="1" parent="1">
          <mxGeometry x="2320" y="379.16999999999996" width="50" height="20" as="geometry" />
        </mxCell>
        <mxCell id="Y5k4C27kbIV8P3GDiavy-57" value="" style="endArrow=blockThin;html=1;rounded=0;endFill=1;strokeColor=#2E3440;fontSize=14;fontFamily=JetBrainsMono NFP;" edge="1" parent="1">
          <mxGeometry width="50" height="50" relative="1" as="geometry">
            <mxPoint x="2120" y="409.16999999999996" as="sourcePoint" />
            <mxPoint x="2420" y="409.16999999999996" as="targetPoint" />
          </mxGeometry>
        </mxCell>
        <mxCell id="Y5k4C27kbIV8P3GDiavy-58" value="指令N" style="rounded=0;whiteSpace=wrap;html=1;strokeWidth=1;fillColor=#ECEFF4;strokeColor=#2E3440;fontColor=#2E3440;fillOpacity=50;labelBackgroundColor=none;" vertex="1" parent="1">
          <mxGeometry x="2215" y="540" width="160" height="20" as="geometry" />
        </mxCell>
        <mxCell id="Y5k4C27kbIV8P3GDiavy-59" value="指令N+1" style="rounded=0;whiteSpace=wrap;html=1;strokeWidth=1;fillColor=#ECEFF4;strokeColor=#2E3440;fontColor=#2E3440;fillOpacity=50;labelBackgroundColor=none;" vertex="1" parent="1">
          <mxGeometry x="2215" y="560" width="160" height="20" as="geometry" />
        </mxCell>
        <mxCell id="Y5k4C27kbIV8P3GDiavy-60" value="指令N+2" style="rounded=0;whiteSpace=wrap;html=1;strokeWidth=1;fillColor=#ECEFF4;strokeColor=#2E3440;fontColor=#2E3440;fillOpacity=50;labelBackgroundColor=none;" vertex="1" parent="1">
          <mxGeometry x="2215" y="580" width="160" height="20" as="geometry" />
        </mxCell>
        <mxCell id="Y5k4C27kbIV8P3GDiavy-61" value="指令N+3" style="rounded=0;whiteSpace=wrap;html=1;strokeWidth=1;fillColor=#ECEFF4;strokeColor=#2E3440;fontColor=#2E3440;fillOpacity=50;labelBackgroundColor=none;" vertex="1" parent="1">
          <mxGeometry x="2215" y="600" width="160" height="20" as="geometry" />
        </mxCell>
        <mxCell id="Y5k4C27kbIV8P3GDiavy-63" value="执行 N" style="rounded=0;whiteSpace=wrap;html=1;strokeWidth=1;fillColor=#5E81AC;strokeColor=#5E81AC;fontColor=#2E3440;fillOpacity=50;" vertex="1" parent="1">
          <mxGeometry x="2000" y="320" width="80" height="20" as="geometry" />
        </mxCell>
        <mxCell id="Y5k4C27kbIV8P3GDiavy-64" value="&lt;font style=&quot;&quot;&gt;解码 N+1&lt;/font&gt;" style="rounded=0;whiteSpace=wrap;html=1;strokeWidth=1;fillColor=#A3BE8C;strokeColor=#A3BE8C;fontColor=#2E3440;fillOpacity=50;" vertex="1" parent="1">
          <mxGeometry x="1920" y="320" width="80" height="20" as="geometry" />
        </mxCell>
        <mxCell id="Y5k4C27kbIV8P3GDiavy-65" value="取指 N+2" style="rounded=0;whiteSpace=wrap;html=1;strokeWidth=1;fillColor=#BF616A;strokeColor=#BF616A;perimeterSpacing=0;glass=0;shadow=0;fillStyle=solid;gradientColor=none;fillOpacity=50;fontColor=#2E3440;" vertex="1" parent="1">
          <mxGeometry x="2000" y="340" width="80" height="20" as="geometry" />
        </mxCell>
      </root>
    </mxGraphModel>
  </diagram>
</mxfile>
